<?xml version="1.0" standalone="no"?>
<!DOCTYPE svg PUBLIC "-//W3C//DTD SVG 1.1//EN" "http://www.w3.org/Graphics/SVG/1.1/DTD/svg11.dtd" >
<svg xmlns="http://www.w3.org/2000/svg">
<metadata></metadata>
<defs>
<font id="litera-lightregular" horiz-adv-x="1183" >
<font-face units-per-em="2048" ascent="1638" descent="-410" />
<missing-glyph horiz-adv-x="593" />
<glyph horiz-adv-x="0" />
<glyph horiz-adv-x="682" />
<glyph unicode=" "  horiz-adv-x="593" />
<glyph unicode="&#x09;" horiz-adv-x="593" />
<glyph unicode="&#xa0;" horiz-adv-x="593" />
<glyph unicode="!" horiz-adv-x="354" d="M162 0v147h88v-147h-88zM168 229v1248h78v-1248h-78z" />
<glyph unicode="&#x22;" horiz-adv-x="710" d="M29 1006l301 471h86l-301 -471h-86zM250 1006l301 471h86l-301 -471h-86z" />
<glyph unicode="#" horiz-adv-x="1294" d="M109 475l18 86h235l74 352h-235l18 86h236l92 439h86l-92 -439h227l92 439h86l-92 -439h236l-19 -86h-235l-76 -352h237l-18 -86h-236l-92 -438h-86l92 438h-227l-92 -438h-86l92 438h-235zM449 561h225l76 352h-228z" />
<glyph unicode="$" horiz-adv-x="1077" d="M74 412h80q0 -170 94 -262q47 -45 110.5 -68t151.5 -23v666q-401 59 -401 369q0 170 113.5 283.5t289.5 113.5v145h68v-145q78 0 129 -23q25 -8 56.5 -27.5t59.5 -43.5q59 -47 88 -105l35 -84l13 -80h-78q-25 127 -110 205t-195 78v-616q78 -8 116.5 -22.5t159.5 -89.5 t121 -286q0 -176 -110.5 -294.5t-291.5 -118.5v-177h-65v181q-209 0 -321.5 109.5t-112.5 314.5zM207 1102q0 -123 72 -195q72 -66 233 -96v604q-129 -14 -217 -102t-88 -211zM573 61q68 0 121.5 20.5t97.5 63.5t76.5 113t32.5 139q0 74 -38 143.5t-86 97.5t-89 42l-108 27z " />
<glyph unicode="%" horiz-adv-x="1474" d="M104 1171q0 131 92.5 227.5t229.5 96.5q133 0 227 -96q45 -47 70 -104.5t25 -125.5q0 -129 -94.5 -224t-227.5 -95t-227.5 94t-94.5 227zM186 1171q0 -98 69 -169.5t171 -71.5q98 0 168 69.5t70 169.5t-69 172t-167 72q-100 0 -171 -71t-71 -171zM350 10l682 1467h86 l-684 -1467h-84zM719 295q0 133 94 227t229 94q137 0 233.5 -93t96.5 -228t-94 -228.5t-234 -93.5q-133 0 -229 93.5t-96 228.5zM803 295q0 -100 68.5 -172t168.5 -72q102 0 174 68.5t72 175.5q0 98 -72 170q-68 72 -170 72q-100 0 -170.5 -71t-70.5 -171z" />
<glyph unicode="&#x26;" horiz-adv-x="1302" d="M94 418q0 141 80 251.5t207 147.5q-94 20 -154.5 107t-60.5 200q0 160 108.5 265.5t270.5 105.5q152 0 254 -98l-62 -58q-90 78 -196 78q-121 0 -205 -84q-41 -41 -61.5 -90t-20.5 -115q0 -123 74.5 -194.5t201.5 -71.5h365v266h86v-272h293v-82h-295v-321 q0 -88 -24.5 -188.5t-143.5 -190.5t-276 -90q-188 0 -314.5 123.5t-126.5 310.5zM182 418q0 -150 101.5 -252.5t246.5 -102.5q160 0 262.5 109t102.5 283v321h-348q-78 0 -141.5 -24.5t-118.5 -77.5q-104 -102 -105 -256z" />
<glyph unicode="'" horiz-adv-x="489" d="M29 1006l301 471h86l-301 -471h-86z" />
<glyph unicode="(" horiz-adv-x="491" d="M104 737q0 121 25 256t76 256q25 61 55.5 121t71.5 121l86 111h104l-67 -86l-146 -218q-59 -92 -90 -231t-31 -330q0 -242 54.5 -379t87.5 -202l71 -123q18 -29 50 -71t71 -89h-104l-41 49l-84 119q-70 102 -129 299q-31 102 -45.5 195.5t-14.5 201.5z" />
<glyph unicode=")" horiz-adv-x="491" d="M-29 -127q78 88 127 170q205 324 205 694q0 246 -68.5 417t-124 260t-139.5 188h105l84 -111q102 -152 165.5 -355.5t63.5 -398.5q0 -258 -64.5 -421.5t-92 -214t-31.5 -58.5q-14 -25 -31 -45q-25 -41 -51 -70l-43 -55h-105z" />
<glyph unicode="*" horiz-adv-x="557" d="M74 1350l26 43l148 -80v164h59v-164l150 84l24 -49l-141 -86l145 -84l-24 -43l-152 82v-177h-61v166l-148 -86l-24 47l145 95z" />
<glyph unicode="+" d="M111 707v65h442v449h76v-449h444v-65h-444v-449h-76v449h-442z" />
<glyph unicode="," horiz-adv-x="356" d="M-133 -346l299 473h88l-301 -473h-86z" />
<glyph unicode="-" horiz-adv-x="600" d="M74 494v77h452v-77h-452z" />
<glyph unicode="." horiz-adv-x="294" d="M104 0v147h89v-147h-89z" />
<glyph unicode="/" horiz-adv-x="714" d="M74 -100l487 1695h78l-485 -1695h-80z" />
<glyph unicode="0" d="M117 735q0 72 2 127.5t4 108.5q0 45 1 58.5t19 111.5q35 164 154 258t295 94q123 0 215 -45t153.5 -131t83.5 -207q8 -53 14.5 -151.5t6.5 -219.5q0 -283 -29.5 -423t-150.5 -234q-59 -45 -132 -69.5t-161 -24.5q-248 0 -338 128t-113.5 252t-23.5 367zM203 735l6 -207 q0 -41 2 -67.5t16.5 -103t61.5 -148.5t127 -111t176 -39q141 0 240.5 81t117.5 182q10 51 17.5 103t7.5 97l6 217q0 240 -18.5 346.5t-94 220t-276.5 113.5q-141 0 -238.5 -79.5t-128.5 -223.5l-16 -166z" />
<glyph unicode="1" d="M348 1399v78h285v-1477h-82v1399h-203z" />
<glyph unicode="2" d="M115 0l723 735q129 133 129 305q0 162 -105.5 270.5t-267.5 108.5q-164 0 -289 -131l-47 60q145 147 338 147q190 0 323.5 -130t133.5 -321q0 -106 -40 -193t-136 -185l-580 -592h772v-74h-954z" />
<glyph unicode="3" d="M176 141l64 52q135 -129 286 -130q154 0 264.5 114t110.5 272q0 168 -117.5 273t-312.5 105v76l49 -2q86 0 149.5 21.5t108.5 87.5q20 33 32.5 69.5t12.5 79.5q0 104 -68.5 179t-172.5 75q-119 0 -207 -115l-68 39q102 154 279 154q135 0 230 -98.5t95 -237.5 q0 -113 -56 -189.5t-157 -107.5q129 -33 211 -145.5t82 -266.5q0 -193 -133 -327.5t-323 -134.5q-213 0 -359 157z" />
<glyph unicode="4" d="M29 516v68l882 913v-915h215v-66h-219v-516h-78v516h-800zM127 582h709v739z" />
<glyph unicode="5" d="M119 80l41 72q78 -49 145 -70q31 -8 71 -14.5t79 -6.5q209 0 357.5 148.5t148.5 368.5q0 219 -146.5 371.5t-359.5 152.5h-48.5t-51 -6t-56.5 -13.5t-66 -23.5v418h660v-76h-578v-236l72 11l53 2q258 0 433.5 -171t175.5 -429q0 -254 -170 -425t-424 -171 q-106 0 -178 20.5t-158 77.5z" />
<glyph unicode="6" d="M31 537q0 203 131 372l119 144l366 424h96l-385 -443q35 16 69 29.5t71.5 24t111.5 10.5q225 0 384 -161t159 -392q0 -238 -159.5 -399.5t-401.5 -161.5t-401.5 158.5t-159.5 394.5zM115 504q0 -176 144 -308.5t335 -132.5q193 0 333 142.5t140 341.5q0 201 -137 338 t-338 137q-197 0 -337 -142.5t-140 -344.5v-31z" />
<glyph unicode="7" d="M111 1397v80h989l-795 -1477h-88l750 1397h-856z" />
<glyph unicode="8" d="M162 408q0 135 71.5 239.5t192.5 153.5l-53 28l-39 29q-111 111 -111 268q0 154 105.5 261.5t263.5 107.5q154 0 261.5 -102.5t107.5 -255.5q0 -92 -35 -160q-31 -70 -66 -100l-49 -46l-51 -30q117 -43 189.5 -152.5t72.5 -240.5q0 -178 -125 -301t-305 -123 q-184 0 -307 121.5t-123 302.5zM246 410q0 -147 100 -248t246 -101q147 0 245.5 99.5t98.5 249.5q0 145 -99.5 247.5t-244.5 102.5t-245.5 -100t-100.5 -250zM305 1126q0 -119 83 -204.5t204 -85.5q119 0 203 84t84 206q0 123 -82 208t-205 85q-119 0 -203 -86t-84 -207z " />
<glyph unicode="9" d="M31 930q0 238 159.5 399.5t401.5 161.5q240 0 400.5 -157.5t160.5 -393.5q0 -207 -72 -297l-114 -139l-66 -78l-364 -426h-99l387 442l-49 -24l-49 -17q-66 -25 -156 -24q-223 0 -381.5 161.5t-158.5 391.5zM117 928q0 -203 136 -338t341 -135q197 0 336 141t139 342 q0 193 -142.5 333t-334.5 140q-197 0 -336 -141t-139 -342z" />
<glyph unicode=":" horiz-adv-x="354" d="M162 0v147h88v-147h-88zM162 797v149h88v-149h-88z" />
<glyph unicode=";" horiz-adv-x="356" d="M-133 -346l299 473h88l-301 -473h-86zM133 797v149h88v-149h-88z" />
<glyph unicode="&#x3c;" horiz-adv-x="636" d="M74 557l387 387h96l-383 -395l391 -387h-92z" />
<glyph unicode="=" d="M109 631v69h966v-69h-966zM109 852v68h966v-68h-966z" />
<glyph unicode="&#x3e;" horiz-adv-x="636" d="M74 944h90l401 -397l-389 -385h-96l383 393z" />
<glyph unicode="?" horiz-adv-x="825" d="M59 1288q111 203 334 203q158 0 265.5 -103.5t107.5 -259.5q0 -158 -68.5 -226t-111.5 -93t-142 -66l-120 -47q-25 -12 -58 -39q-72 -49 -71 -155q0 -84 57 -141.5t145 -57.5q92 0 158 80l63 -45q-80 -115 -225 -115q-119 0 -200.5 80t-81.5 201q0 141 79 201 q80 55 121 75l119 47q74 27 112 48.5t87 78.5q53 57 53 170q0 121 -82 206t-207 85q-168 0 -258 -158zM340 0v147h90v-147h-90z" />
<glyph unicode="@" horiz-adv-x="1708" d="M117 735q0 131 38 249t122.5 234.5t214 190.5t221.5 86t137 12q270 0 445 -180t175 -457q0 -59 -19 -193t-112.5 -249t-158.5 -127l-82 -8q-80 0 -131 53q-43 45 -43 127q-14 -43 -41 -74q-74 -86 -170 -86q-49 0 -149.5 47.5t-100.5 339.5l8 74q18 133 72 227 q49 98 129 154.5t155 56.5q115 0 172 -112l11 -23l18 127l98 -2l-79 -446l-29 -185l-4 -30v-25q0 -39 15 -90t83 -51l39 8q25 10 47 29l25.5 25.5t36.5 39.5q35 45 65 117q25 70 37 145l10 129q0 246 -143.5 398.5t-370.5 152.5q-66 0 -190 -22q-137 -18 -289 -212 t-152 -450q0 -100 41 -259t205 -292t365 -133q86 0 159.5 19.5t155.5 70.5l102 74q63 55 115 115l47 -54l-53 -59q-121 -125 -256 -184.5t-281 -59.5q-274 0 -472.5 184.5t-218 357.5t-19.5 220zM571 594l7 -72q6 -32 20 -57q35 -74 119 -74q55 0 90 32t55 71l37 86l29 92 l20 94l4 22l13 84l6 76q0 76 -44 126t-102 50q-74 0 -127 -65q-45 -59 -77 -148l-35 -131l-13 -92z" />
<glyph unicode="A" horiz-adv-x="1343" d="M-16 0l690 1499l686 -1499h-94l-289 651h-610l-289 -651h-94zM397 721h553l-276 600z" />
<glyph unicode="B" horiz-adv-x="1040" d="M162 0v1477h362q186 0 301 -103.5t115 -275.5q0 -80 -31.5 -156t-72.5 -111l-56 -43l-63 -30l49 -23q25 -12 112 -80.5t87 -255.5q0 -178 -118 -288.5t-317 -110.5h-368zM244 74h270q166 0 265.5 90t99.5 239q0 141 -97.5 229.5t-253.5 88.5h-235v74h231q152 0 241 80.5 t89 224.5q0 137 -94 219t-250 82h-266v-1327z" />
<glyph unicode="C" horiz-adv-x="1327" d="M94 733q0 324 216 542t536 218q137 0 246 -41q59 -18 149 -76l-39 -65l-67 37q-137 69 -289 69h-4q-274 0 -468 -197.5t-194 -482.5q0 -281 190.5 -479.5t469.5 -198.5q184 0 372 117l39 -65l-59 -37q-68 -37 -164 -63.5t-190 -26.5q-315 0 -529.5 216t-214.5 533z" />
<glyph unicode="D" horiz-adv-x="1388" d="M162 0v1477h332q158 0 320.5 -38t320 -239t157.5 -461q0 -166 -63 -307q-31 -70 -75 -132t-101 -114q-109 -96 -234 -141t-293 -45h-364zM244 74h282q297 0 488.5 188.5t191.5 478.5q0 289 -191.5 474.5t-500.5 185.5h-270v-1327z" />
<glyph unicode="E" horiz-adv-x="1048" d="M162 0v1477h749v-78h-667v-625h665v-69h-667v-631h690v-74h-770z" />
<glyph unicode="F" horiz-adv-x="970" d="M162 0v1477h747v-80h-667v-617h665v-73h-663v-707h-82z" />
<glyph unicode="G" horiz-adv-x="1683" d="M94 733q0 319 221.5 540.5t538.5 221.5q170 0 305 -62.5t262 -201.5l-55 -51q-27 33 -41 43l-72 63q-55 49 -168.5 92t-232.5 43q-274 0 -472 -201.5t-198 -488.5q0 -285 193.5 -479.5t476.5 -194.5q272 0 455.5 176.5t214.5 464.5h-1057v72h1137l2 -41 q0 -313 -216.5 -529t-539.5 -216q-317 0 -535.5 216t-218.5 533z" />
<glyph unicode="H" horiz-adv-x="1327" d="M162 0v1477h84v-711h835v711h84v-1477h-82v690h-839v-690h-82z" />
<glyph unicode="I" horiz-adv-x="407" d="M162 0v1477h84v-1477h-84z" />
<glyph unicode="J" horiz-adv-x="1200" d="M16 209l62 45q164 -193 387 -193q221 0 355 148.5t134 396.5v797h-854v74h936v-861q0 -119 -31.5 -257t-181 -256.5t-356.5 -118.5q-268 0 -451 225z" />
<glyph unicode="K" horiz-adv-x="1116" d="M162 0v1477h82v-1477h-82zM250 733l733 772l59 -53l-677 -715l765 -706l-55 -60z" />
<glyph unicode="L" horiz-adv-x="802" d="M162 0v1477h82v-1401h544v-76h-626z" />
<glyph unicode="M" horiz-adv-x="1955" d="M0 0l442 1487l537 -1335l532 1335l445 -1487h-82l-375 1247l-520 -1302l-522 1302l-373 -1247h-84z" />
<glyph unicode="N" horiz-adv-x="1435" d="M162 0v1501l1028 -1308v1284h82v-1520l-1028 1323v-1280h-82z" />
<glyph unicode="O" horiz-adv-x="1681" d="M94 737q0 317 216.5 535.5t531.5 218.5q313 0 528 -216t215 -538q0 -317 -214 -535t-529 -218t-531.5 216t-216.5 537zM176 737q0 -287 190.5 -485.5t473.5 -198.5q274 0 468.5 199t194.5 485q0 289 -192.5 487.5t-470.5 198.5q-274 0 -469 -198.5t-195 -487.5z" />
<glyph unicode="P" horiz-adv-x="991" d="M162 0v1477h340q201 0 323.5 -111t122.5 -295q0 -188 -125 -304t-331 -116h-138v74h142q164 0 267 95t103 249q0 147 -99 239.5t-265 92.5h-258v-1401h-82z" />
<glyph unicode="Q" horiz-adv-x="1693" d="M94 735q0 317 219 536.5t539 219.5q311 0 529 -216t218 -532q0 -152 -53 -286.5t-138 -218.5t-159 -123q-66 -33 -180 -60l94 13l68 6h309v-74h-549l-145 -2q-319 0 -535.5 212t-216.5 525zM176 748q0 -285 195.5 -481.5t476.5 -196.5q276 0 470.5 196.5t194.5 474.5 q0 285 -191.5 479.5t-477.5 194.5q-279 0 -473.5 -194t-194.5 -473z" />
<glyph unicode="R" horiz-adv-x="1101" d="M162 0v1477h307q55 0 97 -4.5t131 -21.5t187.5 -136t98.5 -283q0 -203 -130 -319.5t-359 -116.5l565 -567l-60 -60l-692 697h168q193 0 307.5 98t114.5 266q0 172 -110.5 271.5t-297.5 99.5h-243v-1401h-84z" />
<glyph unicode="S" horiz-adv-x="1077" d="M74 412h80q0 -168 98 -262.5t276 -94.5q160 0 261.5 95.5t101.5 242.5q0 115 -74 200t-205 112l-131 24q-372 78 -372 363q0 172 123.5 287.5t308.5 115.5q90 0 155.5 -21.5t126.5 -76.5q61 -49 93 -112.5t45 -156.5h-78q-25 137 -120 215t-233 78q-135 0 -234 -93 t-99 -228q0 -117 55 -172q29 -29 51.5 -46.5t52.5 -31.5q51 -18 162 -41t163 -37t173 -81.5t121 -293.5q0 -188 -97.5 -276t-170 -112.5t-181.5 -24.5q-213 0 -332.5 111.5t-119.5 316.5z" />
<glyph unicode="T" horiz-adv-x="901" d="M-16 1401v76h934v-76h-426v-1401h-80v1401h-428z" />
<glyph unicode="U" horiz-adv-x="1400" d="M162 590v887h84v-873q0 -104 24.5 -229t144.5 -221.5t285 -96.5q211 0 333 143.5t122 393.5v883h84v-887q0 -283 -142.5 -444.5t-394.5 -161.5q-260 0 -400 167.5t-140 438.5z" />
<glyph unicode="V" horiz-adv-x="1210" d="M-45 1477h90l559 -1330l563 1330h88l-651 -1520z" />
<glyph unicode="W" horiz-adv-x="1894" d="M-29 1477h84l348 -1266l545 1298l545 -1298l346 1266h84l-418 -1506l-557 1332l-559 -1332z" />
<glyph unicode="X" horiz-adv-x="1157" d="M-29 0l564 750l-535 727h92l486 -660l487 660h92l-532 -727l561 -750h-99l-509 682l-508 -682h-99z" />
<glyph unicode="Y" horiz-adv-x="1142" d="M-45 1477h94l567 -709l480 709h90l-533 -799v-678h-80v682z" />
<glyph unicode="Z" horiz-adv-x="1212" d="M74 0l899 1403h-873v74h1010l-893 -1403h922v-74h-1065z" />
<glyph unicode="[" horiz-adv-x="438" d="M162 -125v1716h293v-73h-209v-1567h203v-76h-287z" />
<glyph unicode="\" horiz-adv-x="632" d="M109 1475h110l258 -1475h-110z" />
<glyph unicode="]" horiz-adv-x="438" d="M-16 -49h209v1567h-203v73h286v-1716h-292v76z" />
<glyph unicode="^" horiz-adv-x="356" d="M16 1219l103 202h110l115 -209h-86l-82 154l-90 -147h-70z" />
<glyph unicode="_" horiz-adv-x="1032" d="M109 0h737v-51h-737v51z" />
<glyph unicode="`" horiz-adv-x="296" d="M16 1419h82l111 -207h-84z" />
<glyph unicode="a" horiz-adv-x="1404" d="M94 557q0 238 166 409t406 171q195 0 340 -108.5t178 -278.5l-13 86l-2 114v172h72v-1122h-72v162l7 133l8 63q-43 -166 -185.5 -270t-334.5 -104q-233 0 -401.5 167.5t-168.5 405.5zM176 553q0 -209 142.5 -354.5t353.5 -145.5q207 0 353 148.5t146 361.5 q0 209 -143 355.5t-352 146.5q-211 0 -355.5 -148.5t-144.5 -363.5z" />
<glyph unicode="b" horiz-adv-x="1404" d="M162 0v1477h76v-527l-2 -121l-15 -79q31 166 178.5 276.5t337.5 110.5q242 0 408 -169t166 -411q0 -236 -167 -404.5t-405 -168.5q-182 0 -327.5 104.5t-192.5 269.5l10 -63l9 -133v-162h-76zM236 561q0 -209 146 -358.5t353 -149.5q209 0 350 144q72 72 108 160.5 t36 197.5q0 217 -142.5 363.5t-355.5 146.5q-203 0 -349 -148.5t-146 -355.5z" />
<glyph unicode="c" horiz-adv-x="1116" d="M94 557q0 242 167 411t405 169q115 0 195.5 -32t96.5 -46l76 -55l-53 -60l-61 45q-53 35 -123 58q-76 20 -135 20q-197 0 -339.5 -149.5t-142.5 -360.5q0 -203 143.5 -353.5t340.5 -150.5q47 0 96 13q18 4 46 13t50 21q49 23 68 37l65 53l53 -57l-67 -51 q-63 -41 -152 -72q-87 -26 -159 -26h-5q-233 0 -399 166.5t-166 406.5z" />
<glyph unicode="d" horiz-adv-x="1390" d="M94 557q0 238 166 409t406 171q195 0 340 -108.5t178 -278.5l-13 86l-2 114v527h72v-1477h-72v162l7 133l8 63q-43 -166 -185.5 -270t-334.5 -104q-233 0 -401.5 167.5t-168.5 405.5zM176 553q0 -209 142.5 -354.5t353.5 -145.5q207 0 353 148.5t146 361.5 q0 209 -143 355.5t-352 146.5q-211 0 -355.5 -148.5t-144.5 -363.5z" />
<glyph unicode="e" horiz-adv-x="1331" d="M94 555q0 242 167 412t407 170q233 0 408 -170t175 -402l-2 -37h-925v72h839q-27 209 -164 338t-335 129q-201 0 -344.5 -146.5t-143.5 -355.5q0 -211 142.5 -359.5t353.5 -148.5q111 0 197.5 43t177.5 144l65 -51q-182 -209 -440 -209q-238 0 -408 166.5t-170 404.5z " />
<glyph unicode="f" horiz-adv-x="468" d="M45 1057v65h127q0 37 4 49l33 97q29 78 135.5 150.5t235.5 72.5q106 0 200 -47l-30 -72q-23 12 -39.5 18.5t-47 15.5t-53 10t-35.5 1q-131 0 -218 -78.5t-103 -216.5h412v-65h-418v-1057h-78v1057h-125z" />
<glyph unicode="g" horiz-adv-x="1402" d="M94 563q0 233 168 402.5t404 169.5q197 0 340 -106.5t176 -278.5q-6 53 -10.5 100t-4.5 94v178h74v-866v-29v-22q0 -39 -2 -73t-8 -60q-8 -59 -59.5 -167t-197 -199t-312.5 -91q-211 0 -302 76l-102 88l-31 35l62 51q156 -174 379 -174q201 0 353.5 140t152.5 341l4 117 l6 69q-43 -164 -193 -270q-74 -53 -153.5 -79.5t-173.5 -26.5q-233 0 -401.5 171t-168.5 410zM174 555q0 -211 141 -358q70 -70 158 -107t195 -37q209 0 356 148.5t147 363.5q0 207 -145 352.5t-352 145.5q-213 0 -356.5 -146.5t-143.5 -361.5z" />
<glyph unicode="h" horiz-adv-x="1261" d="M162 0v1477l80 -2v-482q0 -61 -19 -166q104 313 424 314q150 0 260 -78q115 -74 148 -166q14 -39 23 -74t16 -61q6 -47 6 -135v-627h-80v612q0 156 -34 244t-131 151.5t-212 63.5q-168 0 -285.5 -127t-117.5 -313v-631h-78z" />
<glyph unicode="i" horiz-adv-x="413" d="M162 1253v224h88v-224h-88zM168 0v1122h78v-1122h-78z" />
<glyph unicode="j" horiz-adv-x="417" d="M-176 -309h37q152 0 236.5 93t84.5 267v1071h76v-1075v-29q0 -16 -4 -45q0 -27 -2 -42t-13.5 -82.5t-113.5 -151.5t-242 -84l-59 4v74zM174 1251v226h90v-226h-90z" />
<glyph unicode="k" horiz-adv-x="1071" d="M162 0v1477h76v-1477h-76zM246 580l690 555l47 -62l-553 -440q113 -20 194 -61.5t172 -128.5t138 -198.5t65 -244.5h-79l-17 92q-43 180 -157.5 288.5t-215 146.5t-149.5 44z" />
<glyph unicode="l" horiz-adv-x="403" d="M162 0v1477h78v-1477h-78z" />
<glyph unicode="m" horiz-adv-x="2023" d="M162 0v1122h82v-151v-29q0 -16 -4 -48t-17 -69q37 156 140.5 236t252.5 80q133 0 247 -86t151 -219q39 131 150.5 216t248.5 85q193 0 321 -123t128 -314v-700h-78v662v81q-6 27 -10.5 53.5t-40 93t-124.5 119t-188 52.5q-154 0 -263 -112.5t-109 -266.5v-682h-76v674 q0 166 -104.5 276.5t-262.5 110.5q-152 0 -259 -118t-107 -284v-659h-78z" />
<glyph unicode="n" horiz-adv-x="1261" d="M162 0v1122h80v-129q0 -61 -19 -166q49 152 161 234t265 82q141 0 258 -79t154 -183q18 -53 28.5 -116t10.5 -138v-627h-80v612q0 156 -34 244t-131 151.5t-212 63.5q-168 0 -285.5 -127t-117.5 -313v-631h-78z" />
<glyph unicode="o" horiz-adv-x="1345" d="M94 563q0 240 170 407t410 167q238 0 407.5 -167t169.5 -409q0 -240 -168 -408.5t-409 -168.5q-244 0 -412 167.5t-168 411.5zM174 563q0 -215 145.5 -363.5t354.5 -148.5q207 0 352 148.5t145 361.5q0 211 -145 359.5t-352 148.5q-205 0 -352.5 -149.5t-147.5 -356.5z " />
<glyph unicode="p" horiz-adv-x="1404" d="M162 -371v1493h76v-172l-2 -121l-15 -79q31 166 178.5 276.5t337.5 110.5q242 0 408 -169t166 -411q0 -236 -167 -404.5t-405 -168.5q-182 0 -327.5 104.5t-192.5 269.5l10 -63l9 -133v-533h-76zM236 561q0 -209 146 -358.5t353 -149.5q209 0 350 144q72 72 108 160.5 t36 197.5q0 217 -142.5 363.5t-355.5 146.5q-203 0 -349 -148.5t-146 -355.5z" />
<glyph unicode="q" horiz-adv-x="1404" d="M94 557q0 238 166 409t406 171q195 0 340 -108.5t178 -278.5l-13 86l-2 114v172h72v-1493h-72v533l7 133l8 63q-43 -166 -185.5 -270t-334.5 -104q-233 0 -401.5 167.5t-168.5 405.5zM176 553q0 -209 142.5 -354.5t353.5 -145.5q207 0 353 148.5t146 361.5 q0 209 -143 355.5t-352 146.5q-211 0 -355.5 -148.5t-144.5 -363.5z" />
<glyph unicode="r" horiz-adv-x="598" d="M162 0v1122h78v-342q16 43 31.5 78t33.5 66q70 92 137.5 131t102.5 49l98 24v-75q-184 -49 -292.5 -188.5t-108.5 -327.5v-537h-80z" />
<glyph unicode="s" horiz-adv-x="880" d="M74 270h84q14 -98 89 -155.5t181 -57.5q111 0 186.5 70t75.5 174q0 53 -23.5 101.5t-70.5 78.5l-76 35l-119 41q-27 8 -53 16q-43 14 -63 25q-35 12 -99.5 63.5t-64.5 180.5q0 127 93 212t239 85q129 0 210.5 -62.5t106.5 -185.5h-88q-14 78 -73.5 125t-147.5 47 q-109 0 -179.5 -62.5t-70.5 -158.5q0 -90 54 -131t163 -78l94 -29q254 -78 254 -299q0 -141 -97 -232t-245 -91q-150 0 -243 73.5t-117 214.5z" />
<glyph unicode="t" horiz-adv-x="495" d="M16 1055v67h181v355h77v-355h250v-65h-250v-1057h-77v1055h-181z" />
<glyph unicode="u" horiz-adv-x="1261" d="M162 494v628h78v-612q0 -145 36.5 -240.5t130 -157t214.5 -61.5q170 0 286 125q57 61 86 139t29 177v630h78v-1122h-80v129l6 84l12 82q-47 -152 -155 -234q-55 -41 -118.5 -61t-143.5 -20q-150 0 -263.5 76.5t-148.5 164.5q-10 31 -22.5 74t-18.5 70z" />
<glyph unicode="v" horiz-adv-x="966" d="M-29 1122h84l430 -983l426 983h88l-514 -1165z" />
<glyph unicode="w" horiz-adv-x="1579" d="M16 1122h84l267 -929l421 966l422 -966l269 929h84l-338 -1155l-437 1004l-434 -1004z" />
<glyph unicode="x" horiz-adv-x="923" d="M-29 0l439 565l-433 557h103l383 -499l381 499h102l-432 -557l438 -565h-102l-387 504l-389 -504h-103z" />
<glyph unicode="y" horiz-adv-x="995" d="M-29 1122h88l433 -966l446 966h88l-686 -1493h-86l195 428z" />
<glyph unicode="z" horiz-adv-x="952" d="M45 0l739 1057h-714v65h854l-740 -1056h738v-66h-877z" />
<glyph unicode="{" horiz-adv-x="661" d="M109 737q55 0 89.5 41.5t34.5 104.5v690q0 127 156 127h115v-64h-23q-74 0 -98 -24q-10 -12 -16.5 -37t-6.5 -66v-616q0 -59 -36.5 -104.5t-98.5 -51.5q53 -6 97 -49q39 -45 38 -106v-617q0 -80 21.5 -103.5t99.5 -23.5h23v-63h-115q-78 0 -117 32.5t-39 94.5v690 q0 98 -45 118.5t-79 26.5z" />
<glyph unicode="|" horiz-adv-x="354" d="M109 0v1475h110v-1475h-110z" />
<glyph unicode="}" horiz-adv-x="661" d="M109 -162h22q74 0 98 25q10 12 16.5 36.5t6.5 65.5v617q0 59 37 104t96 51q-55 6 -96 49q-37 43 -37 107v616q0 78 -22.5 102.5t-98.5 24.5h-22v64h114q154 0 154 -127v-690q0 -63 34.5 -104.5t92.5 -41.5q-33 -4 -80 -26q-47 -18 -47 -119v-690q0 -127 -154 -127h-114 v63z" />
<glyph unicode="~" horiz-adv-x="512" d="M16 1567q0 72 34 113.5t95 41.5l21 -2l37 -8l65 -39q57 -35 94 -35q31 0 51.5 18.5t24.5 53.5h58q-29 -147 -136 -147q-49 0 -102 32l-74 43l-37 9q-76 0 -75 -64v-16h-56z" />
<glyph unicode="&#xa1;" horiz-adv-x="354" d="M162 1329v148h88v-148h-88zM168 0v1247h78v-1247h-78z" />
<glyph unicode="&#xa2;" horiz-adv-x="1116" d="M94 557q0 221 141.5 383t360.5 186v156h76l6 -152q14 20 49 21q23 0 63.5 -15.5t96.5 -43.5l80 -43l67 -45l-53 -60q-76 57 -126 80t-81 30t-48 9t-54 2v-1004q55 0 103 11.5t87 29.5q57 27 127 88l53 -57l-59 -45q-63 -45 -147 -78q-31 -10 -72 -18t-74 -8l-26 4v-178 h-70v182q-227 31 -363.5 185.5t-136.5 379.5zM186 561q0 -143 74 -264t160 -168q84 -41 174 -57v989q-82 -14 -134 -42t-163 -133.5t-111 -324.5z" />
<glyph unicode="&#xa3;" horiz-adv-x="1255" d="M74 674v76h168v129v39.5t4 46.5q0 35 25.5 155.5t180 246.5t349.5 126q109 0 191.5 -34t189.5 -118l-54 -55l-8 4q-47 33 -86 55.5t-80 40.5q-74 27 -151 27q-113 0 -211 -47t-157.5 -123t-86 -171t-26.5 -204v-118h669v-76h-672v-598h764v-76h-845v674h-164z" />
<glyph unicode="&#xa4;" horiz-adv-x="1011" d="M109 438l133 133q-59 76 -60 166q0 92 58 168l-131 125l14 17l12 16l15 14l16 15l133 -129q76 57 166 57q98 0 172 -55l129 129l18 -15q25 -18 43 -49l-133 -125q23 -33 39 -80q6 -23 10.5 -43t4.5 -47q0 -92 -56 -166l133 -133l-14 -14l-12 -12l-19 -17l-16 -14 l-129 133q-68 -55 -168 -55q-90 0 -168 55l-133 -131q-31 25 -57 57zM274 737q0 -78 55.5 -135t135.5 -57t136 56t56 136t-57 136.5t-135 56.5q-80 0 -135.5 -55.5t-55.5 -137.5z" />
<glyph unicode="&#xa5;" horiz-adv-x="1380" d="M74 1477h94l565 -709l479 709h95l-433 -664h400v-82h-459l-43 -53v-43h502v-82h-502v-553h-82v557h-551v74h551v51l-33 53h-516v82h453z" />
<glyph unicode="&#xa7;" horiz-adv-x="1087" d="M84 573q0 117 67.5 197t186.5 107q-145 110 -145 274q0 141 110.5 247.5t265.5 106.5q158 0 266.5 -103.5t108.5 -262.5h-88q0 127 -82 212t-207 85q-113 0 -198.5 -84t-85.5 -197q0 -86 55 -164q55 -72 149 -98l301 -92q217 -66 218 -289q0 -113 -64.5 -190.5 t-183.5 -108.5q141 -109 141 -272q0 -154 -106.5 -254.5t-268.5 -100.5q-160 0 -265 99.5t-105 255.5v14h82q0 -131 80.5 -218t209.5 -87q117 0 201 81t84 199q0 207 -209 269l-297 90q-102 31 -164 104q-57 76 -57 180zM170 578q0 -80 50 -142.5t134 -87.5l281 -76l67 -4 q86 0 154 67.5t68 162.5q0 84 -52 149q-47 66 -131 90l-282 80l-72 6q-86 0 -154 -73q-63 -74 -63 -172z" />
<glyph unicode="&#xa8;" horiz-adv-x="294" d="M-76 1219v204h88v-204h-88zM279 1219v204h88v-204h-88z" />
<glyph unicode="&#xa9;" horiz-adv-x="1908" d="M119 739q0 317 223.5 540.5t540.5 223.5t540.5 -223t223.5 -541q0 -317 -223.5 -540.5t-540.5 -223.5t-540.5 223.5t-223.5 540.5zM209 739q0 -135 50.5 -259t148.5 -226q96 -96 219 -146.5t256 -50.5q127 0 252 49.5t220 146.5t147 227t52 261q0 135 -50 259t-146 223.5 t-222 148.5t-253 49q-129 0 -252 -49t-221.5 -148.5t-149.5 -226.5t-51 -258zM395 721q0 94 46 221t175 216t293 89h58l100 -20q74 -12 182 -105l-53 -73q-86 78 -162 92l-119 14q-154 0 -267 -96t-132 -199l-16 -135q0 -178 119.5 -297t291.5 -119q121 0 228 66l55 41 l53 -74q-72 -59 -153.5 -92t-175.5 -33q-221 0 -372 147.5t-151 356.5z" />
<glyph unicode="&#xaa;" horiz-adv-x="983" d="M109 1147q0 25 1 38t14 83.5t103 149.5t205 79q27 0 43.5 -2t63.5 -14q76 -14 137 -125l10 -19l6 -12v150h109v-662h-111v160l-6 -17q-31 -74 -98.5 -116.5t-155.5 -42.5q-59 0 -169.5 45t-131.5 157zM131 610v101h670v-101h-670zM221 1147l4 -49q20 -102 92 -156 q70 -47 144 -47q66 0 135.5 49t83.5 115l14 92q0 51 -22 102l-21 39q-31 53 -83 81t-111 28q-94 0 -153.5 -62.5t-78.5 -146.5z" />
<glyph unicode="&#xab;" horiz-adv-x="716" d="M59 561l308 455h86l-306 -461l314 -467h-84zM256 557l309 459h90l-307 -467l309 -461h-82z" />
<glyph unicode="&#xac;" horiz-adv-x="1245" d="M109 737v111h933v-406h-98v295h-835z" />
<glyph unicode="&#xad;" horiz-adv-x="600" d="M74 494v77h452v-77h-452z" />
<glyph unicode="&#xae;" horiz-adv-x="1908" d="M119 739q0 317 223.5 540.5t540.5 223.5t540.5 -223t223.5 -541q0 -317 -223.5 -540.5t-540.5 -223.5t-540.5 223.5t-223.5 540.5zM209 739q0 -135 50.5 -259t148.5 -226q96 -96 219 -146.5t256 -50.5q127 0 252 49.5t220 146.5t147 227t52 261q0 135 -50 259t-146 223.5 t-222 148.5t-253 49q-129 0 -252 -49t-221.5 -148.5t-149.5 -226.5t-51 -258zM655 254v989h209q145 0 215 -56.5t82 -121.5l10 -92q0 -104 -62 -173t-171 -81l-37 -2l318 -463h-123l-336 500v-500h-105zM760 782h84q223 0 223 185q0 92 -53 139q-49 49 -154 49h-100v-373z " />
<glyph unicode="&#xb1;" horiz-adv-x="1216" d="M90 39v139h946v-139h-946zM90 539v139h404v250h139v-250h403v-139h-403v-250h-139v250h-404z" />
<glyph unicode="&#xb4;" horiz-adv-x="305" d="M88 1212l113 211h92l-121 -211h-84z" />
<glyph unicode="&#xb5;" horiz-adv-x="1275" d="M150 -285l4 119l4 182l-2 207l-4 195v502h188v-607q0 -145 28.5 -194t102.5 -49q115 0 193.5 166.5t78.5 416.5v267h189v-672q0 -92 18.5 -135t59.5 -43t64.5 42t23.5 126v28h43l2 -18v-27q0 -109 -48 -174t-137 -65q-98 0 -153 88t-55 264q-47 -182 -126 -267t-198 -85 q-88 0 -150 53q-55 55 -81 158l-2 -58q0 -135 63 -287.5t68 -189.5q0 -41 -22.5 -63.5t-63.5 -22.5q-47 0 -67.5 36t-20.5 107z" />
<glyph unicode="&#xb6;" horiz-adv-x="1302" d="M109 1092q0 156 111.5 269.5t266.5 113.5h609v-89h-609q-119 0 -203.5 -87t-84.5 -212q0 -119 86 -203.5t202 -84.5h148v506h90v-1305h-90v711h-148q-154 0 -266 110.5t-112 270.5zM868 0v1305h90v-1305h-90z" />
<glyph unicode="&#xb8;" horiz-adv-x="233" d="M16 -293l109 217h94l-104 -217h-99z" />
<glyph unicode="&#xba;" horiz-adv-x="985" d="M109 1151l6 68q25 129 120 208.5t218 79.5q74 0 189.5 -50t139.5 -163l21 -145q0 -14 -1 -27.5t-13.5 -82t-84 -142.5t-131.5 -86l-79 -14l-41 -2q-35 0 -104.5 13t-140.5 88t-93 185zM121 610v101h670v-101h-670zM219 1151q0 -82 35 -139q31 -53 86 -88q53 -29 117 -29 q102 0 160.5 65.5t66.5 118.5l8 72q0 80 -35 135q-31 57 -85 88t-117 31q-96 0 -168 -74q-68 -74 -68 -180z" />
<glyph unicode="&#xbb;" horiz-adv-x="716" d="M59 1016h82l320 -469l-307 -459h-91l310 467zM256 1016h84l317 -469l-307 -459h-84l305 461z" />
<glyph unicode="&#xbf;" horiz-adv-x="821" d="M57 348q0 37 6.5 69t22.5 68q27 68 79 125.5t184 108.5t154.5 63.5t74 51t51.5 139.5q0 84 -57.5 141t-143.5 57q-100 0 -160 -77l-61 43q78 117 225 116q117 0 199 -79.5t82 -202.5q0 -141 -77 -198.5t-122 -78.5l-147 -57q-106 -37 -166 -106.5t-60 -178.5 q0 -123 84 -207t205 -84q166 0 260 158l74 -33q-111 -203 -334 -202q-160 0 -266.5 103t-106.5 261zM393 1329v148h90v-148h-90z" />
<glyph unicode="&#xc0;" horiz-adv-x="1343" d="M-16 0l690 1499l686 -1499h-94l-289 651h-610l-289 -651h-94zM397 721h553l-276 600zM538 1845h82l111 -207h-84z" />
<glyph unicode="&#xc1;" horiz-adv-x="1343" d="M-16 0l690 1499l686 -1499h-94l-289 651h-610l-289 -651h-94zM397 721h553l-276 600zM606 1638l113 211h92l-121 -211h-84z" />
<glyph unicode="&#xc2;" horiz-adv-x="1343" d="M-16 0l690 1499l686 -1499h-94l-289 651h-610l-289 -651h-94zM397 721h553l-276 600zM510 1645l103 202h110l115 -209h-86l-82 154l-90 -147h-70z" />
<glyph unicode="&#xc3;" horiz-adv-x="1343" d="M-16 0l690 1499l686 -1499h-94l-289 651h-610l-289 -651h-94zM397 721h553l-276 600zM444 1645q0 84 34 132t91 48q29 0 46.5 -9.5t67.5 -55.5t89 -46q49 0 76 94h49q0 -39 -10 -68.5t-31 -56.5q-33 -45 -84 -45q-57 0 -99 41t-67 54q-18 12 -39 12q-59 0 -78 -100h-45z " />
<glyph unicode="&#xc4;" horiz-adv-x="1343" d="M-16 0l690 1499l686 -1499h-94l-289 651h-610l-289 -651h-94zM399 727h547l-272 594zM420 1610v162h96v-162h-96zM819 1610v162l94 4v-166h-94z" />
<glyph unicode="&#xc5;" horiz-adv-x="1343" d="M-16 0l680 1448q-39 12 -68 26.5t-45 32.5q-31 35 -31 95v14q6 63 50 105t102 42q55 0 97 -42t52 -105v-17q0 -53 -24.5 -83.5t-96.5 -67.5l660 -1448h-94l-289 651h-610l-289 -651h-94zM399 727h547l-272 594zM575 1616q0 -41 29 -69.5t68 -28.5t65.5 28.5t26.5 67.5 q0 37 -26.5 63.5t-65.5 26.5q-37 0 -67 -24.5t-30 -63.5z" />
<glyph unicode="&#xc6;" horiz-adv-x="1785" d="M-29 0l869 1477h802v-80h-669v-615h672v-73h-672v-633h696v-76h-774v709h-416l-424 -709h-84zM520 784h375v627z" />
<glyph unicode="&#xc7;" horiz-adv-x="1329" d="M94 733q0 324 216 542t536 218q137 0 246 -41q59 -18 149 -76l-39 -65l-67 37q-139 70 -293 69q-274 0 -468 -197.5t-194 -482.5q0 -281 190.5 -479.5t469.5 -198.5q184 0 372 117l39 -65l-59 -37q-68 -37 -164 -63.5t-190 -26.5q-315 0 -529.5 216t-214.5 533zM639 -266 l109 217h96l-105 -217h-100z" />
<glyph unicode="&#xc8;" horiz-adv-x="1048" d="M162 0v1477h749v-78h-667v-625h665v-69h-667v-631h690v-74h-770zM391 1845h82l111 -207h-84z" />
<glyph unicode="&#xc9;" horiz-adv-x="1048" d="M162 0v1477h749v-78h-667v-625h665v-69h-667v-631h690v-74h-770zM459 1638l113 211h92l-121 -211h-84z" />
<glyph unicode="&#xca;" horiz-adv-x="1048" d="M162 0v1477h749v-78h-667v-625h665v-69h-667v-631h690v-74h-770zM362 1645l103 202h110l115 -209h-86l-82 154l-90 -147h-70z" />
<glyph unicode="&#xcb;" horiz-adv-x="1048" d="M162 0v1477h749v-78h-667v-625h665v-69h-667v-631h690v-74h-770zM301 1645v204h88v-204h-88zM656 1645v204h88v-204h-88z" />
<glyph unicode="&#xcc;" horiz-adv-x="407" d="M71 1845h82l111 -207h-84zM162 0v1477h84v-1477h-84z" />
<glyph unicode="&#xcd;" horiz-adv-x="407" d="M139 1638l113 211h92l-121 -211h-84zM162 0v1477h84v-1477h-84z" />
<glyph unicode="&#xce;" horiz-adv-x="407" d="M41 1645l103 202h110l115 -209h-86l-82 154l-90 -147h-70zM162 0v1477h84v-1477h-84z" />
<glyph unicode="&#xcf;" horiz-adv-x="407" d="M-21 1645v204h88v-204h-88zM162 0v1477h84v-1477h-84zM334 1645v204h88v-204h-88z" />
<glyph unicode="&#xd1;" horiz-adv-x="1435" d="M162 0v1501l1028 -1308v1284h82v-1520l-1028 1323v-1280h-82zM491 1645q0 84 34 132t91 48q29 0 46.5 -9.5t67.5 -55.5t89 -46q49 0 76 94h49q0 -39 -10 -68.5t-31 -56.5q-33 -45 -84 -45q-57 0 -99 41t-67 54q-18 12 -39 12q-59 0 -78 -100h-45z" />
<glyph unicode="&#xd2;" horiz-adv-x="1681" d="M94 737q0 317 216.5 535.5t531.5 218.5q313 0 528 -216t215 -538q0 -317 -214 -535t-529 -218t-531.5 216t-216.5 537zM176 737q0 -287 190.5 -485.5t473.5 -198.5q274 0 468.5 199t194.5 485q0 289 -192.5 487.5t-470.5 198.5q-274 0 -469 -198.5t-195 -487.5zM708 1845 h82l111 -207h-84z" />
<glyph unicode="&#xd3;" horiz-adv-x="1681" d="M94 737q0 317 216.5 535.5t531.5 218.5q313 0 528 -216t215 -538q0 -317 -214 -535t-529 -218t-531.5 216t-216.5 537zM176 737q0 -287 190.5 -485.5t473.5 -198.5q274 0 468.5 199t194.5 485q0 289 -192.5 487.5t-470.5 198.5q-274 0 -469 -198.5t-195 -487.5zM776 1638 l113 211h92l-121 -211h-84z" />
<glyph unicode="&#xd4;" horiz-adv-x="1681" d="M94 737q0 317 216.5 535.5t531.5 218.5q313 0 528 -216t215 -538q0 -317 -214 -535t-529 -218t-531.5 216t-216.5 537zM176 737q0 -287 190.5 -485.5t473.5 -198.5q274 0 468.5 199t194.5 485q0 289 -192.5 487.5t-470.5 198.5q-274 0 -469 -198.5t-195 -487.5zM678 1645 l103 202h110l115 -209h-86l-82 154l-90 -147h-70z" />
<glyph unicode="&#xd5;" horiz-adv-x="1681" d="M94 737q0 317 216.5 535.5t531.5 218.5q313 0 528 -216t215 -538q0 -317 -214 -535t-529 -218t-531.5 216t-216.5 537zM176 737q0 -287 190.5 -485.5t473.5 -198.5q274 0 468.5 199t194.5 485q0 289 -192.5 487.5t-470.5 198.5q-274 0 -469 -198.5t-195 -487.5zM614 1645 q0 84 34 132t91 48q29 0 46.5 -9.5t67.5 -55.5t89 -46q49 0 76 94h49q0 -39 -10 -68.5t-31 -56.5q-33 -45 -84 -45q-57 0 -99 41t-67 54q-18 12 -39 12q-59 0 -78 -100h-45z" />
<glyph unicode="&#xd6;" horiz-adv-x="1681" d="M94 737q0 317 216.5 535.5t531.5 218.5q313 0 528 -216t215 -538q0 -317 -214 -535t-529 -218t-531.5 216t-216.5 537zM176 737q0 -287 190.5 -485.5t473.5 -198.5q274 0 468.5 199t194.5 485q0 289 -192.5 487.5t-470.5 198.5q-274 0 -469 -198.5t-195 -487.5zM592 1610 v162h94v-162h-94zM989 1610v162l96 4v-166h-96z" />
<glyph unicode="&#xd8;" horiz-adv-x="1681" d="M94 737q0 317 216 535.5t532 218.5q139 0 236.5 -37t145.5 -69.5t115 -92.5l99 105l43 -47l-88 -97l77 -104q49 -76 82 -189.5t33 -224.5q0 -315 -216 -533t-527 -218q-145 0 -237.5 35.5t-141.5 62.5q-31 18 -115 86l-94 -90l-45 39l96 102l-55 62l-86 112 q-70 98 -70 344zM182 735q0 -221 101 -370l71 -93l936 973q-106 88 -211.5 130t-232.5 42q-283 0 -473.5 -196.5t-190.5 -485.5zM401 227l103 -82q10 -6 42 -21t56 -26l115 -35q55 -12 123 -12q274 0 468.5 199t194.5 487q0 102 -25.5 199.5t-56.5 144.5l-37 56l-49 63z" />
<glyph unicode="&#xd9;" horiz-adv-x="1400" d="M162 590v887h84v-873q0 -104 24.5 -229t144.5 -221.5t285 -96.5q211 0 333 143.5t122 393.5v883h84v-887q0 -283 -142.5 -444.5t-394.5 -161.5q-260 0 -400 167.5t-140 438.5zM567 1845h82l111 -207h-84z" />
<glyph unicode="&#xda;" horiz-adv-x="1400" d="M162 590v887h84v-873q0 -104 24.5 -229t144.5 -221.5t285 -96.5q211 0 333 143.5t122 393.5v883h84v-887q0 -283 -142.5 -444.5t-394.5 -161.5q-260 0 -400 167.5t-140 438.5zM635 1638l113 211h92l-121 -211h-84z" />
<glyph unicode="&#xdb;" horiz-adv-x="1400" d="M162 590v887h84v-873q0 -104 24.5 -229t144.5 -221.5t285 -96.5q211 0 333 143.5t122 393.5v883h84v-887q0 -283 -142.5 -444.5t-394.5 -161.5q-260 0 -400 167.5t-140 438.5zM538 1645l103 202h110l115 -209h-86l-82 154l-90 -147h-70z" />
<glyph unicode="&#xdc;" horiz-adv-x="1400" d="M162 590v887h84v-873q0 -104 24.5 -229t144.5 -221.5t285 -96.5q211 0 333 143.5t122 393.5v883h84v-887q0 -283 -142.5 -444.5t-394.5 -161.5q-260 0 -400 167.5t-140 438.5zM446 1610v162h97v-162h-97zM846 1610v162l94 4v-166h-94z" />
<glyph unicode="&#xdf;" horiz-adv-x="1202" d="M162 0v1004q0 119 23.5 216t141 185t281.5 88q178 0 294 -106.5t116 -276.5q0 -233 -201 -295q143 -31 223 -138.5t80 -250.5q0 -195 -124 -318.5t-316 -123.5q-223 0 -377 172l62 45q72 -68 150.5 -107t164.5 -39q152 0 255 105.5t103 259.5q0 160 -83 234.5t-144 94 t-158 19.5l-57 -2v80l39 -2q139 0 221 67.5t82 192.5q0 139 -94 228t-238 89q-172 0 -246.5 -86t-99.5 -159q-20 -72 -20 -172v-1004h-78z" />
<glyph unicode="&#xe0;" horiz-adv-x="1404" d="M94 557q0 238 166 409t406 171q195 0 340 -108.5t178 -278.5l-13 86l-2 114v172h72v-1122h-72v162l7 133l8 63q-43 -166 -185.5 -270t-334.5 -104q-233 0 -401.5 167.5t-168.5 405.5zM176 553q0 -209 142.5 -354.5t353.5 -145.5q207 0 353 148.5t146 361.5 q0 209 -143 355.5t-352 146.5q-211 0 -355.5 -148.5t-144.5 -363.5zM569 1419h82l111 -207h-84z" />
<glyph unicode="&#xe1;" horiz-adv-x="1404" d="M94 557q0 238 166 409t406 171q195 0 340 -108.5t178 -278.5l-13 86l-2 114v172h72v-1122h-72v162l7 133l8 63q-43 -166 -185.5 -270t-334.5 -104q-233 0 -401.5 167.5t-168.5 405.5zM176 553q0 -209 142.5 -354.5t353.5 -145.5q207 0 353 148.5t146 361.5 q0 209 -143 355.5t-352 146.5q-211 0 -355.5 -148.5t-144.5 -363.5zM637 1212l113 211h92l-121 -211h-84z" />
<glyph unicode="&#xe2;" horiz-adv-x="1404" d="M94 557q0 238 166 409t406 171q195 0 340 -108.5t178 -278.5l-13 86l-2 114v172h72v-1122h-72v162l7 133l8 63q-43 -166 -185.5 -270t-334.5 -104q-233 0 -401.5 167.5t-168.5 405.5zM176 553q0 -209 142.5 -354.5t353.5 -145.5q207 0 353 148.5t146 361.5 q0 209 -143 355.5t-352 146.5q-211 0 -355.5 -148.5t-144.5 -363.5zM540 1219l103 202h110l115 -209h-86l-82 154l-90 -147h-70z" />
<glyph unicode="&#xe3;" horiz-adv-x="1404" d="M94 557q0 238 166 409t406 171q195 0 340 -108.5t178 -278.5l-13 86l-2 114v172h72v-1122h-72v162l7 133l8 63q-43 -166 -185.5 -270t-334.5 -104q-233 0 -401.5 167.5t-168.5 405.5zM176 553q0 -209 142.5 -354.5t353.5 -145.5q207 0 353 148.5t146 361.5 q0 209 -143 355.5t-352 146.5q-211 0 -355.5 -148.5t-144.5 -363.5zM475 1219q0 84 34 132t91 48q29 0 46.5 -9.5t67.5 -55.5t89 -46q49 0 76 94h49q0 -39 -10 -68.5t-31 -56.5q-33 -45 -84 -45q-57 0 -99 41t-67 54q-18 12 -39 12q-59 0 -78 -100h-45z" />
<glyph unicode="&#xe4;" horiz-adv-x="1404" d="M94 557q0 238 166 409t406 171q195 0 340 -108.5t178 -278.5l-13 86l-2 114v172h72v-1122h-72v162l7 133l8 63q-43 -166 -185.5 -270t-334.5 -104q-233 0 -401.5 167.5t-168.5 405.5zM176 553q0 -209 142.5 -354.5t353.5 -145.5q207 0 353 148.5t146 361.5 q0 209 -143 355.5t-352 146.5q-211 0 -355.5 -148.5t-144.5 -363.5zM463 1272v205h88v-205h-88zM817 1272v205h88v-205h-88z" />
<glyph unicode="&#xe5;" horiz-adv-x="1404" d="M94 557q0 238 166 409t406 171q195 0 340 -108.5t178 -278.5l-13 86l-2 114v172h72v-1122h-72v162l7 133l8 63q-43 -166 -185.5 -270t-334.5 -104q-233 0 -401.5 167.5t-168.5 405.5zM176 553q0 -209 142.5 -354.5t353.5 -145.5q207 0 353 148.5t146 361.5 q0 209 -143 355.5t-352 146.5q-211 0 -355.5 -148.5t-144.5 -363.5zM567 1368q0 49 36 83t85 34q51 0 86 -32t35 -85q0 -51 -35 -87t-86 -36t-86 37t-35 86zM623 1370q0 -27 18 -47t47 -20q66 0 66 65q0 61 -66 62q-23 0 -44 -17.5t-21 -42.5z" />
<glyph unicode="&#xe6;" horiz-adv-x="2404" d="M94 561q0 238 170 408t408 170q188 0 325.5 -104.5t184.5 -284.5q-8 51 -12.5 90t-4.5 86v196h80v-196q0 -82 -14 -176q37 170 180 279.5t326 109.5q66 0 129 -14.5t127 -45.5q125 -59 196.5 -152t96 -176t30.5 -120t6 -103h-927v72h843q-35 215 -171 340t-334 125 q-203 0 -342.5 -145.5t-139.5 -358.5q0 -229 154 -367.5t334 -138.5q227 0 379 189l63 -51l-55 -58q-76 -70 -176.5 -108.5t-212.5 -38.5q-188 0 -330.5 104.5t-177.5 269.5l2 -30l4 -53l6 -95v-184h-78v180l19 178q-37 -152 -188.5 -263t-331.5 -111q-231 0 -399.5 171 t-168.5 406zM176 551q0 -205 141.5 -351.5t344.5 -146.5q211 0 358 147.5t147 362.5q0 213 -142 358.5t-353 145.5q-209 0 -352.5 -149.5t-143.5 -366.5z" />
<glyph unicode="&#xe7;" horiz-adv-x="1116" d="M94 557q0 242 167 411t405 169q115 0 195.5 -32t96.5 -46l76 -55l-53 -60l-61 45q-53 35 -123 58q-76 20 -135 20q-197 0 -339.5 -149.5t-142.5 -360.5q0 -203 143.5 -353.5t340.5 -150.5q47 0 96 13q18 4 46 13t50 21q49 23 68 37l65 53l53 -57l-67 -51 q-63 -41 -152 -72q-90 -27 -164 -26q-233 0 -399 166.5t-166 406.5zM510 -266l108 217h95l-105 -217h-98z" />
<glyph unicode="&#xe8;" horiz-adv-x="1331" d="M94 555q0 242 167 412t407 170q233 0 408 -170t175 -402l-2 -37h-925v72h839q-27 209 -164 338t-335 129q-201 0 -344.5 -146.5t-143.5 -355.5q0 -211 142.5 -359.5t353.5 -148.5q111 0 197.5 43t177.5 144l65 -51q-182 -209 -440 -209q-238 0 -408 166.5t-170 404.5z M532 1419h82l111 -207h-84z" />
<glyph unicode="&#xe9;" horiz-adv-x="1331" d="M94 555q0 242 167 412t407 170q233 0 408 -170t175 -402l-2 -37h-925v72h839q-27 209 -164 338t-335 129q-201 0 -344.5 -146.5t-143.5 -355.5q0 -211 142.5 -359.5t353.5 -148.5q111 0 197.5 43t177.5 144l65 -51q-182 -209 -440 -209q-238 0 -408 166.5t-170 404.5z M600 1212l113 211h92l-121 -211h-84z" />
<glyph unicode="&#xea;" horiz-adv-x="1331" d="M94 555q0 242 167 412t407 170q233 0 408 -170t175 -402l-2 -37h-925v72h839q-27 209 -164 338t-335 129q-201 0 -344.5 -146.5t-143.5 -355.5q0 -211 142.5 -359.5t353.5 -148.5q111 0 197.5 43t177.5 144l65 -51q-182 -209 -440 -209q-238 0 -408 166.5t-170 404.5z M503 1219l103 202h110l115 -209h-86l-82 154l-90 -147h-70z" />
<glyph unicode="&#xeb;" horiz-adv-x="1331" d="M94 555q0 242 167 412t407 170q233 0 408 -170t175 -402l-2 -37h-925v72h839q-27 209 -164 338t-335 129q-201 0 -344.5 -146.5t-143.5 -355.5q0 -211 142.5 -359.5t353.5 -148.5q111 0 197.5 43t177.5 144l65 -51q-182 -209 -440 -209q-238 0 -408 166.5t-170 404.5z M442 1219v204h88v-204h-88zM797 1219v204h88v-204h-88z" />
<glyph unicode="&#xec;" horiz-adv-x="403" d="M69 1419h82l111 -207h-84zM162 0v1122h80v-1122h-80z" />
<glyph unicode="&#xed;" horiz-adv-x="403" d="M137 1212l113 211h92l-121 -211h-84zM162 0v1122h80v-1122h-80z" />
<glyph unicode="&#xee;" horiz-adv-x="403" d="M39 1219l103 202h110l115 -209h-86l-82 154l-90 -147h-70zM162 0v1122h80v-1122h-80z" />
<glyph unicode="&#xef;" horiz-adv-x="403" d="M-23 1219v204h88v-204h-88zM162 0v1122h80v-1122h-80zM332 1219v204h88v-204h-88z" />
<glyph unicode="&#xf1;" horiz-adv-x="1261" d="M162 0v1122h80v-129q0 -61 -19 -166q49 152 161 234t265 82q141 0 258 -79t154 -183q18 -53 28.5 -116t10.5 -138v-627h-80v612q0 156 -34 244t-131 151.5t-212 63.5q-168 0 -285.5 -127t-117.5 -313v-631h-78zM403 1219q0 84 34 132t91 48q29 0 46.5 -9.5t67.5 -55.5 t89 -46q49 0 76 94h49q0 -39 -10 -68.5t-31 -56.5q-33 -45 -84 -45q-57 0 -99 41t-67 54q-18 12 -39 12q-59 0 -78 -100h-45z" />
<glyph unicode="&#xf2;" horiz-adv-x="1345" d="M94 563q0 240 170 407t410 167q238 0 407.5 -167t169.5 -409q0 -240 -168 -408.5t-409 -168.5q-244 0 -412 167.5t-168 411.5zM174 563q0 -215 145.5 -363.5t354.5 -148.5q207 0 352 148.5t145 361.5q0 211 -145 359.5t-352 148.5q-205 0 -352.5 -149.5t-147.5 -356.5z M540 1419h82l111 -207h-84z" />
<glyph unicode="&#xf3;" horiz-adv-x="1345" d="M94 563q0 240 170 407t410 167q238 0 407.5 -167t169.5 -409q0 -240 -168 -408.5t-409 -168.5q-244 0 -412 167.5t-168 411.5zM174 563q0 -215 145.5 -363.5t354.5 -148.5q207 0 352 148.5t145 361.5q0 211 -145 359.5t-352 148.5q-205 0 -352.5 -149.5t-147.5 -356.5z M608 1212l113 211h92l-121 -211h-84z" />
<glyph unicode="&#xf4;" horiz-adv-x="1345" d="M94 563q0 240 170 407t410 167q238 0 407.5 -167t169.5 -409q0 -240 -168 -408.5t-409 -168.5q-244 0 -412 167.5t-168 411.5zM174 563q0 -215 145.5 -363.5t354.5 -148.5q207 0 352 148.5t145 361.5q0 211 -145 359.5t-352 148.5q-205 0 -352.5 -149.5t-147.5 -356.5z M510 1219l103 202h110l115 -209h-86l-82 154l-90 -147h-70z" />
<glyph unicode="&#xf5;" horiz-adv-x="1345" d="M94 563q0 240 170 407t410 167q238 0 407.5 -167t169.5 -409q0 -240 -168 -408.5t-409 -168.5q-244 0 -412 167.5t-168 411.5zM174 563q0 -215 145.5 -363.5t354.5 -148.5q207 0 352 148.5t145 361.5q0 211 -145 359.5t-352 148.5q-205 0 -352.5 -149.5t-147.5 -356.5z M446 1219q0 84 34 132t91 48q29 0 46.5 -9.5t67.5 -55.5t89 -46q49 0 76 94h49q0 -39 -10 -68.5t-31 -56.5q-33 -45 -84 -45q-57 0 -99 41t-67 54q-18 12 -39 12q-59 0 -78 -100h-45z" />
<glyph unicode="&#xf6;" horiz-adv-x="1345" d="M94 563q0 240 170 407t410 167q238 0 407.5 -167t169.5 -409q0 -240 -168 -408.5t-409 -168.5q-244 0 -412 167.5t-168 411.5zM174 563q0 -215 145.5 -363.5t354.5 -148.5q207 0 352 148.5t145 361.5q0 211 -145 359.5t-352 148.5q-205 0 -352.5 -149.5t-147.5 -356.5z M449 1272v205h90v-205h-90zM803 1272v205h90v-205h-90z" />
<glyph unicode="&#xf7;" horiz-adv-x="1216" d="M88 414v139h948v-139h-948zM446 207q0 49 37 83t80 34q49 0 82 -33t33 -84q0 -49 -35 -82q-31 -35 -80 -35t-84 35q-33 39 -33 82zM446 758q0 49 37 82.5t80 33.5q49 0 82 -35.5t33 -80.5q0 -49 -35 -82q-31 -35 -80 -35t-84 33q-33 37 -33 84z" />
<glyph unicode="&#xf8;" horiz-adv-x="1345" d="M94 563q0 240 170 407t408 167q109 0 185.5 -29t115.5 -51l88 -58l84 84l53 -24l-102 -101l67 -88q39 -55 63.5 -138t24.5 -171q0 -240 -168 -408.5t-409 -168.5q-115 0 -187 28l-108 51l-84 64l-96 -88l-37 37l92 88l-33 37l-47 65q-31 45 -55.5 126t-24.5 171zM174 565 q0 -162 72 -264l61 -78l701 721l-76 57l-90 46q-59 25 -162 24q-209 0 -357.5 -146.5t-148.5 -359.5zM344 182q37 -33 74 -57l96 -47q68 -27 160 -27q205 0 351 149.5t146 360.5q0 66 -18 139.5t-51 122.5l-55 78z" />
<glyph unicode="&#xf9;" horiz-adv-x="1261" d="M162 494v628h78v-612q0 -145 36.5 -240.5t130 -157t214.5 -61.5q170 0 286 125q57 61 86 139t29 177v630h78v-1122h-80v129l6 84l12 82q-47 -152 -155 -234q-55 -41 -118.5 -61t-143.5 -20q-150 0 -263.5 76.5t-148.5 164.5q-10 31 -22.5 74t-18.5 70zM497 1419h82 l111 -207h-84z" />
<glyph unicode="&#xfa;" horiz-adv-x="1261" d="M162 494v628h78v-612q0 -145 36.5 -240.5t130 -157t214.5 -61.5q170 0 286 125q57 61 86 139t29 177v630h78v-1122h-80v129l6 84l12 82q-47 -152 -155 -234q-55 -41 -118.5 -61t-143.5 -20q-150 0 -263.5 76.5t-148.5 164.5q-10 31 -22.5 74t-18.5 70zM565 1212l113 211 h92l-121 -211h-84z" />
<glyph unicode="&#xfb;" horiz-adv-x="1261" d="M162 494v628h78v-612q0 -145 36.5 -240.5t130 -157t214.5 -61.5q170 0 286 125q57 61 86 139t29 177v630h78v-1122h-80v129l6 84l12 82q-47 -152 -155 -234q-55 -41 -118.5 -61t-143.5 -20q-150 0 -263.5 76.5t-148.5 164.5q-10 31 -22.5 74t-18.5 70zM469 1219l103 202 h110l115 -209h-86l-82 154l-90 -147h-70z" />
<glyph unicode="&#xfc;" horiz-adv-x="1261" d="M162 494v628h78v-612q0 -145 36.5 -240.5t130 -157t214.5 -61.5q170 0 286 125q57 61 86 139t29 177v630h78v-1122h-80v129l6 84l12 82q-47 -152 -155 -234q-55 -41 -118.5 -61t-143.5 -20q-150 0 -263.5 76.5t-148.5 164.5q-10 31 -22.5 74t-18.5 70zM412 1272v205h88 v-205h-88zM766 1272v205h88v-205h-88z" />
<glyph unicode="&#xff;" horiz-adv-x="995" d="M-29 1122h88l433 -966l446 966h88l-686 -1493h-86l195 428zM274 1219v204h88v-204h-88zM629 1219v204h88v-204h-88z" />
<glyph unicode="&#x152;" horiz-adv-x="1847" d="M94 729q0 317 214 537.5t519 220.5l181 -6l79 -2l76 -2h539v-80h-672v-615h674v-82h-674v-624h696v-76h-559l-166 -6l-172 -6q-313 0 -524 212t-211 529zM180 731q0 -285 190.5 -478.5t469.5 -193.5l47 2q18 0 35.5 4.5t29.5 6.5v1325l-59 6l-55 6q-276 0 -467 -196.5 t-191 -481.5z" />
<glyph unicode="&#x153;" horiz-adv-x="2400" d="M94 553q0 250 167 419t419 169q141 0 257 -53.5t169 -129t74 -137.5q6 -20 12 -44.5t16 -88.5l13 64l16 57q55 145 193.5 236.5t310.5 91.5q131 0 243.5 -52.5t198.5 -154.5q35 -47 56.5 -84t41.5 -86q16 -51 26.5 -107.5t10.5 -124.5h-925v72h837q-12 90 -54 191.5 t-165 186.5t-272 85q-205 0 -347.5 -145.5t-142.5 -362.5q0 -207 142.5 -351.5t347.5 -144.5q215 0 379 183l59 -52l-43 -47l-100 -86q-90 -74 -303 -73q-209 0 -350.5 120.5t-172.5 317.5q-31 -195 -180 -313.5t-356 -118.5q-248 0 -413 160.5t-165 402.5zM182 557 q0 -209 142.5 -354.5t351.5 -145.5q207 0 347 143.5t140 362.5q0 233 -128 368.5t-353 135.5q-215 0 -357.5 -142.5t-142.5 -367.5z" />
<glyph unicode="&#x178;" horiz-adv-x="1142" d="M-45 1477h94l567 -709l480 709h90l-533 -799v-678h-80v682zM348 1645v204h88v-204h-88zM703 1645v204h88v-204h-88z" />
<glyph unicode="&#x2000;" horiz-adv-x="924" />
<glyph unicode="&#x2001;" horiz-adv-x="1849" />
<glyph unicode="&#x2002;" horiz-adv-x="924" />
<glyph unicode="&#x2003;" horiz-adv-x="1849" />
<glyph unicode="&#x2004;" horiz-adv-x="616" />
<glyph unicode="&#x2005;" horiz-adv-x="462" />
<glyph unicode="&#x2006;" horiz-adv-x="308" />
<glyph unicode="&#x2007;" horiz-adv-x="308" />
<glyph unicode="&#x2008;" horiz-adv-x="231" />
<glyph unicode="&#x2009;" horiz-adv-x="369" />
<glyph unicode="&#x200a;" horiz-adv-x="102" />
<glyph unicode="&#x2010;" horiz-adv-x="600" d="M74 494v77h452v-77h-452z" />
<glyph unicode="&#x2011;" horiz-adv-x="600" d="M74 494v77h452v-77h-452z" />
<glyph unicode="&#x2012;" horiz-adv-x="600" d="M74 494v77h452v-77h-452z" />
<glyph unicode="&#x2013;" d="M109 750v67h966v-67h-966z" />
<glyph unicode="&#x2014;" horiz-adv-x="2039" d="M61 684v107h1917v-107h-1917z" />
<glyph unicode="&#x2018;" horiz-adv-x="489" d="M29 1006l303 471h84l-299 -471h-88z" />
<glyph unicode="&#x2019;" horiz-adv-x="489" d="M29 1006l301 471h86l-301 -471h-86z" />
<glyph unicode="&#x201a;" horiz-adv-x="356" d="M-133 -346l299 473h88l-301 -473h-86z" />
<glyph unicode="&#x201c;" horiz-adv-x="710" d="M29 1006l303 471h84l-299 -471h-88zM250 1006l303 471h84l-299 -471h-88z" />
<glyph unicode="&#x201d;" horiz-adv-x="710" d="M29 1006l301 471h86l-301 -471h-86zM250 1006l301 471h86l-301 -471h-86z" />
<glyph unicode="&#x201e;" horiz-adv-x="565" d="M-147 -346l301 473h86l-301 -473h-86zM74 -346l301 473h86l-301 -473h-86z" />
<glyph unicode="&#x2022;" horiz-adv-x="294" d="M104 428v147h89v-147h-89z" />
<glyph unicode="&#x2026;" horiz-adv-x="2039" d="M258 82q0 41 29 70q31 27 71 26q41 0 68 -28q29 -25 29 -70q0 -39 -29 -67.5t-72 -28.5q-39 0 -67.5 28.5t-28.5 69.5zM940 82q0 41 29 70q31 27 71 26q41 0 68 -28q29 -25 29 -70q0 -39 -29 -67.5t-72 -28.5q-39 0 -67.5 28.5t-28.5 69.5zM1608 82q0 41 28.5 69.5 t69.5 28.5t69.5 -28.5t28.5 -69.5t-28.5 -69.5t-69.5 -28.5t-69.5 28.5t-28.5 69.5z" />
<glyph unicode="&#x202f;" horiz-adv-x="369" />
<glyph unicode="&#x2039;" horiz-adv-x="636" d="M74 557l387 387h96l-383 -395l391 -387h-92z" />
<glyph unicode="&#x203a;" horiz-adv-x="636" d="M74 944h90l401 -397l-389 -385h-96l383 393z" />
<glyph unicode="&#x205f;" horiz-adv-x="462" />
<glyph unicode="&#x20ac;" horiz-adv-x="1521" d="M82 850h1132l50 90h-1121zM135 657h981l49 91h-970zM289 733q0 -315 213 -532q215 -215 530 -215q94 0 190.5 25.5t163.5 62.5l60 37l-39 65q-188 -117 -373 -117q-279 0 -469 199t-190 479q0 287 192 482q193 199 469 198q156 0 293 -69l68 -37l39 65q-45 29 -83 47.5 t-67 28.5q-111 41 -246 41q-317 0 -536 -219q-215 -219 -215 -541z" />
<glyph unicode="&#x2122;" horiz-adv-x="1634" d="M109 1382v93h440v-93l-170 2v-647h-103v647zM524 737l148 762h33l229 -504l12 -30l4 -11q12 -31 13 -69l2 30l12 41l6 15l10 24l230 504h32l148 -762h-105l-77 445l-4 26l-3 9v32l3 33l-9 -29l-10 -34l-8 -25l-4 -8l-211 -469h-23l-211 469l-6 12l-6 21l-18 63l2 -41v-24 l-2 -9l-4 -26l-78 -445h-105z" />
<glyph unicode="&#x25fc;" horiz-adv-x="1126" d="M0 0v1126h1126v-1126h-1126z" />
</font>
</defs>
</svg>
