<?xml version="1.0" standalone="no"?>
<!DOCTYPE svg PUBLIC "-//W3C//DTD SVG 1.1//EN" "http://www.w3.org/Graphics/SVG/1.1/DTD/svg11.dtd" >
<svg xmlns="http://www.w3.org/2000/svg" xmlns:xlink="http://www.w3.org/1999/xlink" version="1.1">
<metadata></metadata>
<defs>
<font id="litera-heavyregular" horiz-adv-x="1183" >
<font-face units-per-em="2048" ascent="1638" descent="-410" />
<missing-glyph horiz-adv-x="593" />
<glyph horiz-adv-x="0" />
<glyph horiz-adv-x="682" />
<glyph unicode=" "  horiz-adv-x="593" />
<glyph unicode="&#x09;" horiz-adv-x="593" />
<glyph unicode="&#xa0;" horiz-adv-x="593" />
<glyph unicode="!" horiz-adv-x="407" d="M117 0v238h231v-238h-231zM119 362v1115h229v-1115h-229z" />
<glyph unicode="&#x22;" horiz-adv-x="950" d="M29 944l241 533h232l-244 -533h-229zM418 944l241 533h234l-244 -533h-231z" />
<glyph unicode="#" horiz-adv-x="1298" d="M59 414l31 147h238l73 352h-235l31 148h237l86 414h148l-86 -414h176l88 414h147l-88 -414h236l-31 -148h-236l-75 -352h235l-30 -147h-236l-88 -414h-148l89 414h-179l-88 -414h-147l88 414h-236zM475 561h176l76 352h-178z" />
<glyph unicode="$" horiz-adv-x="1085" d="M45 438h223q0 -104 59.5 -165.5t170.5 -79.5v489l-115 33q-80 23 -139.5 53.5t-108.5 113.5t-49 185q0 178 113.5 298t279.5 120h23v94h98v-96q84 0 132 -21.5t114 -81.5l51 -67l47 -84q16 -39 33 -131h-229q-12 74 -50 110q-31 35 -100 49v-376q127 -33 205 -78 q96 -47 153.5 -145.5t57.5 -211.5q0 -184 -117 -313t-305 -153v-95h-100v92l-58 7l-61 14q-49 10 -123 56t-117 107.5t-67 123.5q-20 68 -21 153zM328 1075q0 -141 170 -168v355q-78 -12 -124 -62.5t-46 -124.5zM594 201q193 55 192 233q0 176 -192 225v-458z" />
<glyph unicode="%" horiz-adv-x="1871" d="M74 1128q0 154 110.5 264.5t268.5 110.5q154 0 260 -109.5t106 -263.5t-108.5 -262t-261.5 -108q-156 0 -265.5 108.5t-109.5 259.5zM264 1128q0 -74 53.5 -127t131.5 -53t131 53.5t53 128.5q0 76 -53.5 130.5t-130.5 54.5q-78 0 -131.5 -53.5t-53.5 -133.5zM565 0 l512 1477h236l-512 -1477h-236zM1047 346q0 147 110 260t264 113q156 0 265.5 -108.5t109.5 -262.5q0 -156 -108.5 -264.5t-268.5 -108.5q-152 0 -262 109t-110 262zM1233 348q0 -76 53 -131t131 -55q82 0 136.5 53t54.5 133q0 72 -55.5 129.5t-133.5 57.5q-72 0 -129 -55.5 t-57 -131.5z" />
<glyph unicode="&#x26;" horiz-adv-x="1163" d="M59 453q0 248 209 368q-141 74 -141 269q0 178 116.5 294.5t301.5 116.5q88 0 135 -20l70 -31l57 -39l-133 -178q-59 53 -131 53q-74 0 -132.5 -57.5t-58.5 -134.5q0 -92 55.5 -128t102.5 -44l135 -9h154v205h223v-207h108v-200h-110v-166q0 -258 -130 -413t-351 -155 q-201 0 -340.5 136.5t-139.5 339.5zM285 453q0 -102 74.5 -179t177.5 -77q119 0 187.5 89t68.5 249v178h-127h-84q-129 0 -213 -75t-84 -185z" />
<glyph unicode="'" horiz-adv-x="563" d="M29 936l243 541h230l-244 -541h-229z" />
<glyph unicode="(" horiz-adv-x="595" d="M74 737q0 256 61.5 469t210.5 459h279q-63 -82 -95 -133l-96 -168q-59 -113 -99 -277.5t-40 -349.5q0 -195 38 -351.5t98.5 -269t98.5 -173.5l95 -133h-279q-145 244 -208.5 454.5t-63.5 472.5z" />
<glyph unicode=")" horiz-adv-x="595" d="M-29 -190l97 135q34 50 69 118q86 162 125 327t39 347q0 195 -38 352.5t-99 272.5q-53 104 -92 164q-29 45 -101 139h279q145 -244 209 -459q31 -106 47 -222t16 -247q0 -256 -61.5 -467t-210.5 -460h-279z" />
<glyph unicode="*" horiz-adv-x="698" d="M47 1362l160 96l-154 88l62 115l170 -86v197h141v-187l149 82l70 -113l-151 -96l157 -88l-65 -117l-158 86v-196h-145v198l-164 -94z" />
<glyph unicode="+" d="M37 659v226h446v444h224v-446h440v-224h-445v-442h-223v442h-442z" />
<glyph unicode="," horiz-adv-x="430" d="M-104 -305l243 541h232l-244 -541h-231z" />
<glyph unicode="-" horiz-adv-x="761" d="M59 467v190h643v-190h-643z" />
<glyph unicode="." horiz-adv-x="348" d="M59 0v229h230v-229h-230z" />
<glyph unicode="/" horiz-adv-x="935" d="M29 -137l645 1820l233 -10l-641 -1820z" />
<glyph unicode="0" d="M74 471v533q0 215 147.5 356t372.5 141q219 0 368.5 -141t149.5 -356v-533q0 -215 -146.5 -355.5t-371.5 -140.5q-221 0 -370.5 141.5t-149.5 354.5zM303 541q0 -160 78 -250t213 -90t211 91t76 249v395q0 158 -75 248t-212 90q-135 0 -213 -90t-78 -248v-395z" />
<glyph unicode="1" d="M227 1276v201h512v-1477h-225v1276h-287z" />
<glyph unicode="2" d="M25 0l657 733q98 109 132 171.5t34 131.5q0 104 -73 174t-181 70q-106 0 -174 -68.5t-86 -199.5h-221q0 215 137 349t350 134q205 0 341 -133t136 -330q0 -47 -6 -85t-22 -79q-29 -72 -71 -132t-122 -146l-346 -391h575v-199h-1060z" />
<glyph unicode="3" d="M133 221l199 101q72 -127 211 -127q102 0 171.5 72.5t69.5 178.5q0 121 -77 187q-74 68 -215 67h-211v199h235q238 0 238 195q0 86 -50.5 139t-134.5 53q-123 0 -172 -133l-207 96q117 248 371 248q176 0 297 -117.5t121 -292.5q0 -199 -170 -288l55 -31 q59 -47 100.5 -136t41.5 -179q0 -197 -136.5 -333t-332.5 -136q-131 0 -227.5 55t-176.5 182z" />
<glyph unicode="4" d="M-86 373l969 1186v-1010h235v-178h-237v-371h-228v373h-739zM307 553h350v446z" />
<glyph unicode="5" d="M90 156l156 147l73 -41l70 -43q47 -25 115 -24q152 0 255 101t103 255q0 156 -99 261.5t-255 105.5q-188 0 -299 -168v727h805v-199h-594v-180q82 20 143 20q217 0 370.5 -162.5t153.5 -388.5q0 -248 -169.5 -417.5t-419.5 -169.5q-246 0 -408 176z" />
<glyph unicode="6" d="M27 541q0 135 62.5 261t205.5 273l383 402h276l-376 -392l81 7q205 0 351.5 -161t146.5 -384q0 -240 -165 -402.5t-406 -162.5q-240 0 -399.5 159.5t-159.5 399.5zM254 547l2 -35q12 -135 110.5 -225t231.5 -90q137 0 234.5 100t97.5 246q0 147 -97.5 248.5t-246.5 101.5 q-137 0 -234.5 -100.5t-97.5 -245.5z" />
<glyph unicode="7" d="M90 0l674 1278h-610v199h966l-776 -1477h-254z" />
<glyph unicode="8" d="M147 428q0 137 49.5 219t170.5 141q-96 49 -137.5 123t-41.5 193q0 166 118 281.5t286 115.5q170 0 284.5 -114.5t114.5 -284.5q0 -119 -40 -189.5t-138 -124.5q115 -51 167 -140t52 -226q0 -184 -127 -311t-313 -127t-315.5 127t-129.5 317zM377 426q0 -94 61.5 -160.5 t153.5 -66.5q88 0 151.5 67.5t63.5 159.5t-62.5 157.5t-152.5 65.5q-92 0 -153.5 -62.5t-61.5 -160.5zM416 1104q0 -76 49 -131q51 -51 127 -51q74 0 124 53t50 129t-50 132t-124 56q-72 0 -127 -55q-49 -53 -49 -133z" />
<glyph unicode="9" d="M29 920q0 238 164.5 402.5t402.5 164.5q233 0 398 -162t165 -393q0 -27 -1 -56.5t-15 -82.5q-12 -61 -58.5 -153.5t-232.5 -285.5l-340 -354h-283l396 397q-35 -6 -57.5 -10t-45.5 -4q-199 0 -346 159.5t-147 377.5zM252 926q0 -143 103.5 -248t238.5 -105 q137 0 237.5 102.5t100.5 244.5q0 145 -97.5 248.5t-238.5 103.5q-139 0 -241.5 -102.5t-102.5 -243.5z" />
<glyph unicode=":" horiz-adv-x="464" d="M117 0v229h231v-229h-231zM119 872v236h229v-236h-229z" />
<glyph unicode=";" horiz-adv-x="475" d="M-104 -305l243 541h232l-244 -541h-231zM145 872v236h228v-236h-228z" />
<glyph unicode="&#x3c;" horiz-adv-x="960" d="M29 561l583 547h318l-582 -551l524 -557h-305z" />
<glyph unicode="=" d="M37 471v217h1110v-217h-1110zM37 840v221h1112v-221h-1112z" />
<glyph unicode="&#x3e;" horiz-adv-x="960" d="M29 0l583 555l-526 553h307l537 -553l-582 -555h-319z" />
<glyph unicode="?" horiz-adv-x="747" d="M16 1276q102 229 340 229q158 0 260.5 -99t102.5 -259q0 -150 -68 -215l-114 -101l-82 -63l-78 -59q-72 -49 -72 -82q0 -18 12.5 -31.5t38.5 -17.5q23 0 76 43l148 -164q-84 -102 -218 -103q-117 0 -200.5 81t-83.5 198q0 78 38 138t134 132l67 49l62 52l31 26l45 43 q29 33 28 84q0 49 -36.5 86t-90.5 37q-92 0 -129 -104zM225 0v236h232v-236h-232z" />
<glyph unicode="@" horiz-adv-x="1771" d="M115 731q0 455 233.5 589t346 158.5t237.5 24.5q258 0 431 -180t173 -438v-76q-6 -31 -10 -59.5t-41 -128.5q-29 -88 -105 -177q-68 -80 -123 -104l-83 -29l-54 -6q-68 0 -116 37q-43 37 -52 96l-2 25l-12 -25l-29 -43l-43 -49q-33 -39 -131 -39q-53 0 -104 24.5 t-106.5 98.5t-55.5 266q0 47 4 70l25 102q20 72 70 148t102.5 112.5t103.5 51t82 14.5q59 0 115 -31q49 -31 69 -84l15 92h110l-73 -417l-25 -162l-6 -88q0 -41 22.5 -65.5t55.5 -24.5l32 6q20 6 39 22l50 45l40 48l29 49q41 74 57 141l13 76l2 37q0 231 -140.5 381.5 t-365.5 150.5q-51 0 -186.5 -19.5t-284 -196.5t-148.5 -431l5 -72q12 -115 73.5 -245t201.5 -223t308 -93q190 0 346 104.5t238 225.5l22 -137l-49 -62q-236 -254 -567 -254q-291 0 -497.5 184.5t-225.5 358.5zM608 600l6 -68q7 -30 21 -53q35 -70 119 -69q51 0 80.5 29.5 t48.5 60.5l35 84l30 94l19 80l6 35l12 67l8 115q0 51 -37.5 87t-87.5 36q-29 0 -69.5 -16.5t-76.5 -64.5t-58 -108l-29 -86l-17 -65l-8 -72z" />
<glyph unicode="A" horiz-adv-x="1417" d="M-29 0l738 1554l737 -1554h-246l-219 463h-545l-219 -463h-246zM520 664h375l-186 423z" />
<glyph unicode="B" horiz-adv-x="1165" d="M117 0v1477h458h146q137 0 245.5 -121t108.5 -275q0 -188 -153 -309q186 -127 186 -350q0 -102 -45 -192.5t-121 -144.5t-143 -71q-33 -6 -86.5 -10t-130.5 -4h-465zM350 201h223q150 0 231 53t81 176q0 98 -60 164q-54 65 -150 65h-3l-111 3h-127v200h129q86 0 123 6 t100.5 46t63.5 159q0 111 -67.5 160t-225.5 49h-207v-1081z" />
<glyph unicode="C" horiz-adv-x="1363" d="M74 731q0 315 222 539.5t540 224.5q145 0 257.5 -43t225.5 -131l-139 -162l-66 47q-127 80 -285 80q-219 0 -375.5 -160.5t-156.5 -390.5q0 -227 156.5 -388t375.5 -161q102 0 184.5 33t164.5 96l135 -159l-96 -74q-76 -45 -177.5 -73.5t-201.5 -28.5q-319 0 -541.5 216 t-222.5 535z" />
<glyph unicode="D" horiz-adv-x="1468" d="M117 0v1477h487q342 0 566.5 -210t224.5 -528q0 -166 -70 -314.5t-186.5 -247.5t-234.5 -138t-312 -39h-475zM346 197h158h96h57q29 4 37 4q33 0 152 40t219 180t100 314t-95 309.5t-247 184.5q-72 23 -152.5 35t-170.5 12h-154v-1079z" />
<glyph unicode="E" horiz-adv-x="1073" d="M117 0v1477h860v-203h-629v-428h627v-197h-627v-450h651v-199h-882z" />
<glyph unicode="F" horiz-adv-x="978" d="M117 0v1477h862v-201h-629v-432h625v-199h-625v-645h-233z" />
<glyph unicode="G" horiz-adv-x="1662" d="M74 735q0 319 222 541.5t550 222.5q356 0 573 -266l-164 -135q-47 45 -100 83t-102 62q-100 45 -209 45q-221 0 -383 -159.5t-162 -387.5q0 -229 156.5 -388.5t388.5 -159.5q207 0 327.5 109.5t145 166.5t35.5 94l16 70h-913v196h1144l5 -96q0 -319 -220.5 -536 t-541.5 -217q-319 0 -543.5 219t-224.5 536z" />
<glyph unicode="H" horiz-adv-x="1382" d="M117 0v1477h235v-611h678v611h234v-1477h-230v664h-686v-664h-231z" />
<glyph unicode="I" horiz-adv-x="460" d="M117 0v1477h227v-1477h-227z" />
<glyph unicode="J" horiz-adv-x="1071" d="M-45 170l164 137q70 -63 134 -94t132 -31q164 0 253 118t89 327v653h-676v197h903v-869q0 -121 -30.5 -261t-183 -259t-355.5 -119q-272 0 -430 201z" />
<glyph unicode="K" horiz-adv-x="1314" d="M117 0v1477h231v-1477h-231zM352 739l746 783l157 -150l-587 -588l675 -667l-159 -156z" />
<glyph unicode="L" horiz-adv-x="819" d="M117 0v1477h233v-1276h481v-201h-714z" />
<glyph unicode="M" horiz-adv-x="2076" d="M-29 0l527 1587l540 -1155l541 1155l526 -1587h-239l-328 1010l-500 -1043l-499 1043l-328 -1010h-240z" />
<glyph unicode="N" horiz-adv-x="1527" d="M117 0v1540l1085 -1122l-26 96q-6 37 -7 98v865h242v-1557l-1083 1143q24 -81 24 -162v-6v-895h-235z" />
<glyph unicode="O" horiz-adv-x="1669" d="M74 737q0 317 223.5 540.5t540.5 223.5q315 0 536 -224t221 -540q0 -315 -223 -539.5t-536 -224.5q-317 0 -539.5 224.5t-222.5 539.5zM293 737q0 -225 159.5 -383.5t383.5 -158.5q225 0 384.5 157.5t159.5 384.5q0 221 -159.5 383t-384.5 162q-219 0 -381 -160 t-162 -385z" />
<glyph unicode="P" horiz-adv-x="1112" d="M117 0v1477h461q256 0 390 -112t134 -327q0 -258 -137.5 -330.5t-212.5 -86.5q-39 -6 -88.5 -10.5t-116.5 -4.5h-107v203h95l127 6q98 8 157.5 71.5t59.5 151.5q0 53 -25 104.5t-83 92.5t-202 41h-221v-1276h-231z" />
<glyph unicode="Q" horiz-adv-x="1673" d="M74 737q0 309 222 534.5t535 225.5q311 0 537.5 -221t226.5 -526q0 -160 -73.5 -302.5t-169 -200t-248.5 -112.5l6 -16q80 31 160 51q37 8 68.5 12t70.5 4h205v-186h-588h-199h-16q-305 0 -521 216t-216 521zM301 735q0 -223 151.5 -375.5t372.5 -152.5q217 0 376 160.5 t159 382.5q0 225 -154.5 381.5t-376.5 156.5q-213 0 -370.5 -162t-157.5 -391z" />
<glyph unicode="R" horiz-adv-x="1191" d="M117 0v1477h458l140 -4q170 -14 282.5 -133t112.5 -296q0 -164 -91 -269t-261 -136l448 -559l-180 -131l-653 868h88l78 -2l106 4q106 8 170 68.5t64 154.5q0 53 -26 105.5t-84 93.5t-208 41h-213v-1282h-231z" />
<glyph unicode="S" horiz-adv-x="1085" d="M45 438h223q0 -106 75 -177t183 -71q113 0 185.5 69t72.5 175q0 70 -31.5 118t-67.5 67.5t-77 33.5l-125 33l-131 37l-102 43q-63 31 -113.5 115t-50.5 186q0 186 124 307t318 121q188 0 303 -99.5t146 -297.5h-229q-41 178 -222 178q-86 0 -148.5 -56.5t-62.5 -142.5 q0 -92 50 -116l67 -33l141 -41l150 -43q10 -4 33.5 -15.5t46.5 -25.5q96 -47 153.5 -145.5t57.5 -213.5q0 -197 -137.5 -333t-339.5 -136q-219 0 -355.5 126t-136.5 337z" />
<glyph unicode="T" horiz-adv-x="921" d="M-45 1286v191h1010v-193h-394v-1284h-233v1286h-383z" />
<glyph unicode="U" horiz-adv-x="1445" d="M117 645v832h231v-830l6 -145q18 -143 118.5 -234.5t246.5 -91.5q90 0 166 38t125 103.5t69 141.5q8 35 14.5 82t6.5 98v838h229v-830v-41v-28q-4 -18 -4 -25q0 -39 -25.5 -180.5t-189.5 -275.5t-391 -134q-150 0 -277 61.5t-197.5 160t-101.5 204.5q-26 109 -26 246v10z " />
<glyph unicode="V" horiz-adv-x="1355" d="M-59 1477h258l479 -1065l477 1065h260l-737 -1547z" />
<glyph unicode="W" horiz-adv-x="1984" d="M-29 1477h238l291 -961l491 1047l492 -1047l293 961h237l-475 -1559l-547 1145l-547 -1145z" />
<glyph unicode="X" horiz-adv-x="1288" d="M-29 0l539 739l-539 738h281l393 -559l389 559h283l-537 -738l537 -739h-281l-391 571l-393 -571h-281z" />
<glyph unicode="Y" horiz-adv-x="1198" d="M-59 1477h274l395 -633l385 633h262l-528 -838v-639h-233v631z" />
<glyph unicode="Z" horiz-adv-x="1245" d="M16 0l799 1278h-745v199h1142l-806 -1282h768v-195h-1158z" />
<glyph unicode="[" horiz-adv-x="483" d="M119 -164v1804h334v-163h-125v-1477h125v-164h-334z" />
<glyph unicode="\" horiz-adv-x="727" d="M59 1475h295l258 -1475h-295z" />
<glyph unicode="]" horiz-adv-x="481" d="M31 0h123v1477h-123v163h331v-1804h-331v164z" />
<glyph unicode="^" horiz-adv-x="512" d="M-16 1202l137 275h254l151 -275h-166l-112 215l-107 -215h-157z" />
<glyph unicode="_" horiz-adv-x="925" d="M59 0h738v-88h-738v88z" />
<glyph unicode="`" horiz-adv-x="372" d="M-16 1477h184l147 -277h-176z" />
<glyph unicode="a" horiz-adv-x="1343" d="M74 547q0 236 163.5 400.5t397.5 164.5q203 0 277.5 -82t93.5 -108l32 -52q-18 39 -24 66l-6 74v98h219v-1108h-223v86q0 66 32 133l-32 -47q-149 -192 -375 -192h-2q-223 0 -388 167.5t-165 399.5zM303 543q0 -147 99.5 -250t242.5 -103q76 0 137.5 25t116.5 78 q104 102 105 250q0 76 -25 137t-78 117q-102 104 -250 104q-145 0 -246.5 -103t-101.5 -255z" />
<glyph unicode="b" horiz-adv-x="1347" d="M117 0v1477h223v-467l-6 -72l-25 -68l37 54q14 25 89 106.5t280 81.5q229 0 395 -167t166 -398q0 -233 -164 -400t-391 -167q-182 0 -262 73l-101 103l-43 63q31 -92 31 -133v-86h-229zM352 545q0 -150 102.5 -252.5t250.5 -102.5q141 0 240 102.5t99 248.5 q0 154 -99 257t-245 103q-147 0 -247.5 -103t-100.5 -253z" />
<glyph unicode="c" horiz-adv-x="1101" d="M74 547q0 240 166 405.5t411 165.5q238 0 402 -166l-158 -151q-102 102 -250 102q-145 0 -245.5 -103.5t-100.5 -252.5q0 -150 99.5 -252t250.5 -102q82 0 145.5 30.5t118.5 93.5l160 -151q-172 -188 -428 -189q-244 0 -407.5 161t-163.5 409z" />
<glyph unicode="d" horiz-adv-x="1347" d="M74 547q0 236 163.5 400.5t397.5 164.5q203 0 277.5 -82t93.5 -108l32 -52q-18 39 -24 66l-6 74v467h223v-1477h-227v86q0 66 32 133l-32 -47q-149 -192 -375 -192h-2q-223 0 -388 167.5t-165 399.5zM303 543q0 -147 99.5 -250t242.5 -103q145 0 247.5 102.5t102.5 250.5 q0 152 -98 255t-246 103q-145 0 -246.5 -103t-101.5 -255z" />
<glyph unicode="e" horiz-adv-x="1277" d="M74 541q0 240 166 405.5t411 165.5q231 0 399.5 -166t168.5 -401v-45q-6 -27 -9 -39h-768v188h543q-39 115 -128 182.5t-208 67.5q-152 0 -251 -100.5t-99 -253.5q0 -150 99.5 -252.5t248.5 -102.5q143 0 258 111l164 -139q-166 -184 -424 -185q-244 0 -407.5 161 t-163.5 403z" />
<glyph unicode="f" horiz-adv-x="563" d="M16 909v199h109q0 170 111.5 277.5t285.5 107.5q170 0 297 -129l-166 -141q-59 59 -133 59q-170 0 -170 -174h350v-197h-352v-911h-231v909h-101z" />
<glyph unicode="g" horiz-adv-x="1339" d="M74 547q0 233 162.5 401t392.5 168q70 0 125 -12t106 -41q92 -51 180 -180q-36 86 -36 145v80h219v-782q0 -98 -13.5 -197.5t-46.5 -206t-188.5 -213t-339.5 -106.5q-270 0 -442 221l169 129q117 -135 285 -135q145 0 217 72.5t94.5 113.5t63.5 152l45 118l-25 -45 l-61 -92q-47 -61 -137 -110q-94 -45 -215 -45q-231 0 -393 164.5t-162 400.5zM299 547q0 -147 98.5 -250.5t247.5 -103.5q147 0 248.5 104t101.5 250q0 152 -98 255t-250 103q-141 0 -244.5 -105.5t-103.5 -252.5z" />
<glyph unicode="h" horiz-adv-x="1255" d="M117 0v1477h223v-392q0 -84 -37 -167q116 208 359 208h2q115 0 214 -49t158 -129q55 -82 79 -165t24 -201v-582h-221v561q0 78 -15 150q-12 78 -92 141q-76 66 -184 66q-135 0 -196.5 -77t-78.5 -132q-14 -61 -14 -154v-555h-221z" />
<glyph unicode="i" horiz-adv-x="464" d="M117 0v1108h227v-1108h-227zM119 1235v242h229v-242h-229z" />
<glyph unicode="j" horiz-adv-x="471" d="M-354 -236l168 136q68 -72 149 -72q49 0 86 25.5t53 68.5l21 84l6 111v991h223v-1002v-49v-49l-12 -104q0 -80 -109.5 -185.5t-263.5 -105.5q-102 0 -185 40t-136 111zM129 1233v244h223v-244h-223z" />
<glyph unicode="k" horiz-adv-x="1093" d="M117 0v1477h227v-1477h-227zM356 561l516 574l156 -142l-330 -370q158 -80 247 -229.5t89 -340.5v-53h-235l-4 80q-4 43 -9.5 65.5t-21.5 74.5t-54 114.5t-106.5 120t-122.5 75.5l-65 21z" />
<glyph unicode="l" horiz-adv-x="464" d="M117 0v1477h229v-1477h-229z" />
<glyph unicode="m" horiz-adv-x="1964" d="M117 0v1108h219v-51q0 -53 -25 -133q49 92 140.5 143t205.5 51q172 0 293 -114l56 -74q152 190 376 190q117 0 213.5 -46t153.5 -123t77.5 -148.5t20.5 -198.5v-604h-231v569l-4 113q-12 92 -83 155.5t-173 63.5q-147 0 -195.5 -81t-56.5 -126l-8 -131v-563h-230v565 l-2 97q-8 100 -81.5 168.5t-176.5 68.5q-59 0 -112.5 -24.5t-92.5 -69.5q-31 -43 -44 -90t-13 -135v-580h-227z" />
<glyph unicode="n" horiz-adv-x="1253" d="M117 0v1108h223v-53q0 -63 -31 -135q102 206 357 206h2q111 0 209 -48t161 -130q29 -43 46.5 -76.5t31.5 -78.5q20 -82 21 -199v-594h-219v563l-3 45q0 27 -13 99.5t-91 141.5t-182 69q-66 0 -123 -29q-59 -25 -98 -74t-53.5 -95t-14.5 -155v-565h-223z" />
<glyph unicode="o" horiz-adv-x="1290" d="M74 551q0 233 166.5 400t408.5 167q231 0 400.5 -167t169.5 -400t-167 -400t-405 -167q-236 0 -404.5 166.5t-168.5 400.5zM301 551q0 -150 99.5 -252t246.5 -102q150 0 247 102t97 252q0 145 -98 248.5t-244 103.5q-147 0 -247.5 -100t-100.5 -252z" />
<glyph unicode="p" horiz-adv-x="1347" d="M117 -371v1479h229v-88q0 -33 -8 -59l-23 -72l31 45q66 90 164 141t211 51q225 0 390 -166.5t165 -398.5q0 -236 -164 -400.5t-397 -164.5q-201 0 -271.5 74.5t-85.5 97.5l-49 70q18 -37 24.5 -67t6.5 -73v-469h-223zM352 563q0 -152 99.5 -254t248.5 -102 q150 0 247 102.5t97 257.5q0 143 -98 247t-241 104q-147 0 -250 -102.5t-103 -252.5z" />
<glyph unicode="q" horiz-adv-x="1347" d="M74 561q0 227 163.5 396t389.5 169q90 0 173 -31.5t134 -82.5q41 -41 102 -123q-32 70 -32 131v88h227v-1479h-223v469l6 70q6 29 24 70l-41 -60q-18 -27 -89.5 -104.5t-272.5 -77.5q-231 0 -396 167t-165 398zM303 565q0 -147 98.5 -252.5t249.5 -105.5q150 0 247 102.5 t97 255.5q0 147 -99 250t-251 103q-141 0 -241.5 -104t-100.5 -249z" />
<glyph unicode="r" horiz-adv-x="688" d="M117 0v1108h227v-176q138 194 334 194h2l37 -2l-33 -221q-59 -6 -94 -22q-39 -12 -88 -45q-86 -61 -122 -151.5t-36 -256.5v-428h-227z" />
<glyph unicode="s" horiz-adv-x="923" d="M74 340h219q0 -80 48 -126t124 -46q70 0 115 40t45 107q0 72 -58 105l-20 12l-43 17l-90 30q-180 55 -252 131t-72 197q0 145 103.5 239.5t263.5 94.5q154 0 256 -93.5t102 -240.5h-225q-18 127 -135 127q-57 0 -95 -35q-36 -30 -36 -77q0 -36 16 -52l45 -35 q23 -14 109 -45l131 -49q47 -18 136 -71.5t89 -235.5q0 -154 -111.5 -257.5t-281.5 -103.5q-174 0 -278.5 96.5t-104.5 270.5z" />
<glyph unicode="t" horiz-adv-x="569" d="M-6 909v199h153v369h230v-369h297v-195h-301v-913h-228v909h-151z" />
<glyph unicode="u" horiz-adv-x="1253" d="M117 514v594h219v-563q0 -78 15.5 -149.5t92 -138.5t183.5 -67q135 0 196.5 75t77.5 124q12 47 12 154v565h224v-1108h-226v53q0 63 33 135q-49 -98 -142 -153t-216 -55q-236 0 -329 126.5t-120 206.5q-20 82 -20 201z" />
<glyph unicode="v" horiz-adv-x="1067" d="M-45 1108h246l334 -719l331 719h246l-577 -1186z" />
<glyph unicode="w" horiz-adv-x="1681" d="M-23 1108h240l223 -659l402 741l397 -741l225 659h238l-414 -1182l-446 828l-451 -828z" />
<glyph unicode="x" horiz-adv-x="983" d="M-16 0l376 551l-376 557h266l242 -369l243 369h264l-376 -557l376 -551h-266l-241 360l-242 -360h-266z" />
<glyph unicode="y" horiz-adv-x="1114" d="M-45 1108h254l352 -688l348 688h248l-772 -1479h-248l295 559z" />
<glyph unicode="z" horiz-adv-x="888" d="M16 0l496 913h-473v195h829l-493 -913h497v-195h-856z" />
<glyph unicode="{" horiz-adv-x="813" d="M59 737q59 0 98.5 42.5t39.5 105.5v635q0 98 53 151t149 53h293v-176h-26q-63 0 -89 -22.5t-26 -75.5v-520q0 -129 -127 -180l-55 -13l55 -12q57 -23 92 -73t35 -107v-520q0 -98 115 -99h26v-176h-293q-96 0 -149 53.5t-53 151.5v635q0 63 -38 105t-100 42z" />
<glyph unicode="|" horiz-adv-x="446" d="M59 0v1475h295v-1475h-295z" />
<glyph unicode="}" horiz-adv-x="813" d="M59 -74h27q63 0 89 22.5t26 76.5v520q0 59 34.5 107t94.5 73l53 12l-53 13q-59 25 -94 73.5t-35 106.5v520q0 51 -25.5 74.5t-89.5 23.5h-27v176h293q96 0 149.5 -53t53.5 -151v-635q0 -61 39 -107q41 -41 98 -41q-55 0 -98 -43q-39 -43 -39 -104v-635q0 -98 -53 -151.5 t-150 -53.5h-293v176z" />
<glyph unicode="~" horiz-adv-x="780" d="M29 1587q43 221 217 221q45 0 71 -10q25 -6 105 -55q80 -45 117 -45t57 39l25 59h129q-10 -106 -64.5 -167.5t-138.5 -61.5q-70 0 -172 61l-86 45q-18 12 -47 13q-59 0 -82 -99h-131z" />
<glyph unicode="&#xa1;" horiz-adv-x="407" d="M119 0v1112h229v-1112h-229zM121 1237v240h229v-240h-229z" />
<glyph unicode="&#xa2;" horiz-adv-x="1101" d="M74 547q0 233 124 359t193 157q37 14 54.5 20.5t52 13.5t102.5 7v98h109v-100h8l78 -2q16 0 66 -17.5t92 -47t100 -83.5l-158 -151q-90 90 -190 90v-696q63 14 109 39.5t99 82.5l160 -151q-6 -10 -15 -20.5t-26 -22.5l-67 -49l-84 -47l-80 -29l-107 -21v-69h-104v72 q-236 31 -376 183t-140 384zM303 555q0 -76 28.5 -145.5t88.5 -130.5q55 -53 172 -84v696q-289 -74 -289 -336z" />
<glyph unicode="&#xa3;" horiz-adv-x="1064" d="M29 666v176h127v8v20q0 145 16 203q10 43 17.5 64.5t23.5 52.5q25 51 125 183t373 132q109 0 177 -21.5t148 -80.5l-112 -176q-53 29 -113 45q-31 8 -54.5 12t-54.5 4q-74 0 -136 -28.5t-101 -77.5q-31 -41 -57.5 -125t-26.5 -158l4 -51h559v-180h-569v-486h629v-182 h-850v666h-125z" />
<glyph unicode="&#xa4;" horiz-adv-x="1017" d="M59 426l109 106q-59 94 -59 213l2 52q0 20 14 63q12 47 43 92l-105 105q12 18 18.5 26.5t22.5 24.5q18 25 48 45l112 -115q96 68 211 68q113 0 205 -66l111 115l28 -22q41 -37 64 -78l-107 -101q33 -45 51 -102q8 -29 12.5 -54.5t4.5 -60.5q0 -115 -70 -209l109 -106 l-21 -25l-20 -20l-51 -51l-111 110q-92 -68 -209 -67q-109 0 -205 67l-116 -108l-23 22l-21 23l-24 26zM236 737q0 -98 69.5 -168.5t169.5 -70.5q98 0 169 69.5t71 169.5q0 98 -70 169t-170 71q-98 0 -168.5 -70.5t-70.5 -169.5z" />
<glyph unicode="&#xa5;" horiz-adv-x="1314" d="M0 1477h274l398 -633l383 633h260l-406 -660h355v-143h-445l-31 -35v-55h478v-127h-478v-457h-233v453h-492v139h492v39l-29 47h-460v141h376z" />
<glyph unicode="&#xa7;" horiz-adv-x="1112" d="M55 600q0 90 57.5 174t161.5 146l-24 30l-17 31q-18 37 -30.5 92t-12.5 103q0 143 101.5 234t265.5 91q80 0 157 -25.5t132 -74.5t80 -105l26 -77q6 -25 6 -66l-202 -25q-16 74 -72.5 119t-126.5 45q-57 0 -99 -39t-42 -94q0 -33 2 -47t14 -37l29 -47l37 -43l55 -55 l317 -203q96 -66 141.5 -133.5t45.5 -159.5q0 -115 -62.5 -211t-177.5 -147q76 -98 76 -187q0 -152 -103.5 -243.5t-273.5 -91.5q-168 0 -272.5 83.5t-104.5 225.5l221 20v-14q0 -43 49.5 -77t110.5 -34q53 0 99.5 32t46.5 71l-11 53l-12 41l-22 41l-25 31l-45 47l-334 227 q-66 45 -114 132t-48 167zM283 610q0 -49 27.5 -97t72.5 -79l309 -201q16 4 24.5 7.5t18.5 9.5q18 12 41 41q63 63 64 121q0 35 -18.5 74.5t-45.5 56.5l-354 227q-61 -20 -100 -63t-39 -97z" />
<glyph unicode="&#xa8;" horiz-adv-x="589" d="M-45 1198v219h221v-219h-221zM410 1198v219h223v-219h-223z" />
<glyph unicode="&#xa9;" horiz-adv-x="1908" d="M119 737q0 315 222.5 540.5t541.5 225.5q317 0 540.5 -223t223.5 -543q0 -317 -223.5 -540.5t-540.5 -223.5t-540.5 223.5t-223.5 540.5zM260 737q0 -258 184 -448q84 -88 203 -137q55 -23 115.5 -35.5t122.5 -12.5q125 0 235.5 45.5t247.5 187.5t137 402t-137 399.5 t-249.5 185.5t-237.5 46t-232.5 -44t-202.5 -138q-84 -88 -135 -207t-51 -244zM469 731q0 43 18.5 147.5t139.5 207t288 102.5q41 0 121 -13.5t172 -87.5l-90 -133q-55 47 -108 56l-80 10q-102 0 -179 -66.5t-89 -138.5l-11 -88q0 -111 62.5 -186.5t136.5 -87.5l88 -11l53 7 q23 4 30 6t21 10l39 20q20 10 37 27l88 -135q-78 -59 -162 -82q-80 -18 -135 -19q-160 0 -278.5 94.5t-138.5 188.5l-21 115z" />
<glyph unicode="&#xaa;" horiz-adv-x="999" d="M57 1100l2 43l19 102q14 84 113.5 169t211.5 85q86 0 148.5 -40t95.5 -91v107h215l2 -725h-219v112l-16 -26q-33 -45 -92.5 -74t-133.5 -29q-35 0 -112.5 13.5t-155.5 114t-78 239.5zM78 457v196h786v-196h-786zM283 1114q0 -78 39.5 -128t109.5 -62l37 -2q68 0 116 42 t56 83l8 67l-12 94q-12 68 -84 86l-90 17q-74 0 -129 -56q-51 -55 -51 -141z" />
<glyph unicode="&#xab;" horiz-adv-x="1525" d="M29 545l583 563h318l-582 -563l524 -545h-305zM596 545l582 563h319l-586 -563l529 -545h-310z" />
<glyph unicode="&#xac;" horiz-adv-x="1402" d="M59 737v295h1180v-590h-221v295h-959z" />
<glyph unicode="&#xad;" horiz-adv-x="761" d="M59 467v190h643v-190h-643z" />
<glyph unicode="&#xae;" horiz-adv-x="1908" d="M119 737q0 315 222.5 540.5t541.5 225.5q317 0 540.5 -223t223.5 -543q0 -317 -223.5 -540.5t-540.5 -223.5t-540.5 223.5t-223.5 540.5zM260 737q0 -258 184 -448q84 -88 203 -137q55 -23 115.5 -35.5t122.5 -12.5q125 0 235.5 45.5t247.5 187.5t137 402t-137 399.5 t-249.5 185.5t-237.5 46t-232.5 -44t-202.5 -138q-84 -88 -135 -207t-51 -244zM606 309v875h275q92 0 129 -10.5t92 -52.5t67 -95l15 -74l2 -37q0 -86 -44 -143t-132 -84l-17 -4l246 -375h-209l-246 396v-396h-178zM784 776h68q123 0 137 66l15 76q0 55 -39 87.5t-107 32.5 h-74v-262z" />
<glyph unicode="&#xb1;" horiz-adv-x="1216" d="M90 39v139h946v-139h-946zM90 539v139h404v250h139v-250h403v-139h-403v-250h-139v250h-404z" />
<glyph unicode="&#xb4;" horiz-adv-x="374" d="M59 1202l144 275h184l-151 -275h-177z" />
<glyph unicode="&#xb5;" horiz-adv-x="1275" d="M150 -285l4 119l4 182l-2 207l-4 195v502h188v-607q0 -145 28.5 -194t102.5 -49q115 0 193.5 166.5t78.5 416.5v267h189v-672q0 -92 18.5 -135t59.5 -43t64.5 42t23.5 126v28h43l2 -18v-27q0 -109 -48 -174t-137 -65q-98 0 -153 88t-55 264q-47 -182 -126 -267t-198 -85 q-88 0 -150 53q-55 55 -81 158l-2 -58q0 -135 63 -287.5t68 -189.5q0 -41 -22.5 -63.5t-63.5 -22.5q-47 0 -67.5 36t-20.5 107z" />
<glyph unicode="&#xb6;" horiz-adv-x="1372" d="M59 1024q0 182 129 316.5t318 134.5h704v-162h-706q-117 0 -203 -86q-41 -43 -61.5 -92.5t-20.5 -112.5q0 -119 84 -202t201 -83h123v457h176v-1194h-176v575h-123q-182 0 -313.5 129.5t-131.5 319.5zM922 0v1194h176v-1194h-176z" />
<glyph unicode="&#xb8;" horiz-adv-x="401" d="M-141 -365l243 283h230l-244 -283h-229z" />
<glyph unicode="&#xba;" horiz-adv-x="999" d="M59 1114q0 168 117 278.5t283 110.5l82 -6q145 -27 234 -134.5t89 -248.5q0 -166 -115.5 -278.5t-287.5 -112.5t-287 111.5t-115 279.5zM72 457v196h782v-196h-782zM274 1114l5 -37q12 -68 62 -110.5t120 -42.5q78 0 132 54t54 136l-4 37q-20 123 -90 137l-92 15 q-18 0 -29.5 -2.5t-69 -13.5t-83.5 -138z" />
<glyph unicode="&#xbb;" horiz-adv-x="1525" d="M29 0l583 555l-526 553h307l537 -553l-582 -555h-319zM596 0l582 555l-525 553h308l536 -553l-584 -555h-317z" />
<glyph unicode="&#xbf;" horiz-adv-x="747" d="M31 358q0 147 112 260l68 58l84 63l78 58q70 51 69 84q0 49 -51 49l-31 -12l-43 -33l-149 164q84 102 217 102q119 0 204 -81t85 -196q0 -76 -39 -136t-137 -136l-66 -49l-61 -51l-72 -66q-33 -33 -33 -88q0 -49 37 -86t88 -37q92 0 129 107l215 -99q-109 -233 -344 -233 q-158 0 -259 102.5t-101 255.5zM295 1272v233h227v-233h-227z" />
<glyph unicode="&#xc0;" horiz-adv-x="1417" d="M-29 0l738 1554l737 -1554h-246l-219 463h-545l-219 -463h-246zM506 1917h184l147 -277h-176zM520 664h375l-186 423z" />
<glyph unicode="&#xc1;" horiz-adv-x="1417" d="M-29 0l738 1554l737 -1554h-246l-219 463h-545l-219 -463h-246zM520 664h375l-186 423zM579 1642l144 275h184l-151 -275h-177z" />
<glyph unicode="&#xc2;" horiz-adv-x="1417" d="M-29 0l738 1554l737 -1554h-246l-219 463h-545l-219 -463h-246zM437 1642l137 275h254l151 -275h-166l-112 215l-107 -215h-157zM520 664h375l-186 423z" />
<glyph unicode="&#xc3;" horiz-adv-x="1417" d="M-29 0l738 1554l737 -1554h-246l-219 463h-545l-219 -463h-246zM403 1640q0 117 48 177.5t138 60.5q37 0 67 -12.5t85 -51.5q59 -35 94 -39q49 0 57 84h119l2 -16q0 -84 -53 -151.5t-123 -67.5q-51 0 -121 45l-88 55l-35 8q-59 0 -59 -92h-131zM520 664h375l-186 423z " />
<glyph unicode="&#xc4;" horiz-adv-x="1417" d="M-29 0l738 1554l737 -1554h-246l-219 463h-545l-219 -463h-246zM371 1550v219h221v-219h-221zM520 664h375l-186 423zM823 1550v219h224v-219h-224z" />
<glyph unicode="&#xc5;" horiz-adv-x="1415" d="M-31 0l715 1493q-88 35 -122 73t-34 101q0 82 55.5 137.5t127.5 55.5q70 0 122 -56.5t52 -136.5q0 -59 -31 -98t-119 -76l711 -1493h-246l-221 463h-543l-221 -463h-246zM520 664h375l-188 423zM633 1681q0 -33 20 -55q21 -16 56 -20q31 0 51 20.5t24 56.5 q0 29 -20.5 49.5t-52.5 24.5q-33 0 -56 -22q-23 -18 -22 -54z" />
<glyph unicode="&#xc6;" horiz-adv-x="1859" d="M-2 0l731 1477h1028v-209h-629v-422h627v-197h-620v-446h649v-197h-885v455h-434l-219 -461h-248zM565 662h332v673z" />
<glyph unicode="&#xc7;" horiz-adv-x="1363" d="M74 731q0 315 222 539.5t540 224.5q145 0 257.5 -43t225.5 -131l-139 -162l-66 47q-127 80 -285 80q-219 0 -375.5 -160.5t-156.5 -390.5q0 -227 156.5 -388t375.5 -161q102 0 184.5 33t164.5 96l135 -159l-96 -74q-76 -45 -177.5 -73.5t-201.5 -28.5q-319 0 -541.5 216 t-222.5 535zM449 -326l243 283h232l-244 -283h-231z" />
<glyph unicode="&#xc8;" horiz-adv-x="1073" d="M117 0v1477h860v-203h-629v-428h627v-197h-627v-450h651v-199h-882zM334 1917h184l147 -277h-176z" />
<glyph unicode="&#xc9;" horiz-adv-x="1073" d="M117 0v1477h860v-203h-629v-428h627v-197h-627v-450h651v-199h-882zM407 1642l144 275h184l-151 -275h-177z" />
<glyph unicode="&#xca;" horiz-adv-x="1073" d="M117 0v1477h860v-203h-629v-428h627v-197h-627v-450h651v-199h-882zM265 1642l137 275h254l151 -275h-166l-112 215l-107 -215h-157z" />
<glyph unicode="&#xcb;" horiz-adv-x="1073" d="M117 0v1477h860v-203h-629v-428h627v-197h-627v-450h651v-199h-882zM197 1638v219h221v-219h-221zM652 1638v219h223v-219h-223z" />
<glyph unicode="&#xcc;" horiz-adv-x="460" d="M27 1917h184l147 -277h-176zM117 0v1477h227v-1477h-227z" />
<glyph unicode="&#xcd;" horiz-adv-x="460" d="M102 1642l144 275h184l-151 -275h-177zM117 0v1477h227v-1477h-227z" />
<glyph unicode="&#xce;" horiz-adv-x="460" d="M-39 1642l137 275h254l151 -275h-166l-112 215l-107 -215h-157zM117 0v1477h227v-1477h-227z" />
<glyph unicode="&#xcf;" horiz-adv-x="460" d="M-106 1638v219h221v-219h-221zM117 0v1477h227v-1477h-227zM349 1638v219h223v-219h-223z" />
<glyph unicode="&#xd1;" horiz-adv-x="1527" d="M117 0v1540l1085 -1122l-26 96q-6 37 -7 98v865h242v-1557l-1083 1143q25 -84 24 -168v-895h-235zM459 1640q0 117 48 177.5t138 60.5q37 0 67 -12.5t85 -51.5q59 -35 94 -39q49 0 57 84h119l2 -16q0 -84 -53 -151.5t-123 -67.5q-51 0 -121 45l-88 55l-35 8 q-59 0 -59 -92h-131z" />
<glyph unicode="&#xd2;" horiz-adv-x="1669" d="M74 737q0 317 223.5 540.5t540.5 223.5q315 0 536 -224t221 -540q0 -315 -223 -539.5t-536 -224.5q-317 0 -539.5 224.5t-222.5 539.5zM293 737q0 -225 159.5 -383.5t383.5 -158.5q225 0 384.5 157.5t159.5 384.5q0 221 -159.5 383t-384.5 162q-219 0 -381 -160 t-162 -385zM631 1917h184l147 -277h-176z" />
<glyph unicode="&#xd3;" horiz-adv-x="1669" d="M74 737q0 317 223.5 540.5t540.5 223.5q315 0 536 -224t221 -540q0 -315 -223 -539.5t-536 -224.5q-317 0 -539.5 224.5t-222.5 539.5zM293 737q0 -225 159.5 -383.5t383.5 -158.5q225 0 384.5 157.5t159.5 384.5q0 221 -159.5 383t-384.5 162q-219 0 -381 -160 t-162 -385zM706 1642l144 275h184l-151 -275h-177z" />
<glyph unicode="&#xd4;" horiz-adv-x="1669" d="M74 737q0 317 223.5 540.5t540.5 223.5q315 0 536 -224t221 -540q0 -315 -223 -539.5t-536 -224.5q-317 0 -539.5 224.5t-222.5 539.5zM293 737q0 -225 159.5 -383.5t383.5 -158.5q225 0 384.5 157.5t159.5 384.5q0 221 -159.5 383t-384.5 162q-219 0 -381 -160 t-162 -385zM562 1642l137 275h254l151 -275h-166l-112 215l-107 -215h-157z" />
<glyph unicode="&#xd5;" horiz-adv-x="1669" d="M74 737q0 317 223.5 540.5t540.5 223.5q315 0 536 -224t221 -540q0 -315 -223 -539.5t-536 -224.5q-317 0 -539.5 224.5t-222.5 539.5zM293 737q0 -225 159.5 -383.5t383.5 -158.5q225 0 384.5 157.5t159.5 384.5q0 221 -159.5 383t-384.5 162q-219 0 -381 -160 t-162 -385zM530 1640q0 117 48 177.5t138 60.5q37 0 67 -12.5t85 -51.5q59 -35 94 -39q49 0 57 84h119l2 -16q0 -84 -53 -151.5t-123 -67.5q-51 0 -121 45l-88 55l-35 8q-59 0 -59 -92h-131z" />
<glyph unicode="&#xd6;" horiz-adv-x="1669" d="M74 737q0 317 223.5 540.5t540.5 223.5q315 0 536 -224t221 -540q0 -315 -223 -539.5t-536 -224.5q-317 0 -539.5 224.5t-222.5 539.5zM293 737q0 -225 159.5 -383.5t383.5 -158.5q225 0 384.5 157.5t159.5 384.5q0 221 -159.5 383t-384.5 162q-219 0 -381 -160 t-162 -385zM496 1550v219h221v-219h-221zM950 1550v219h224v-219h-224z" />
<glyph unicode="&#xd8;" horiz-adv-x="1619" d="M47 743q0 313 222.5 535.5t545.5 222.5q129 0 232 -37q49 -18 113.5 -56t144.5 -95l112 112l78 -75l-106 -111l6 -8q174 -264 174 -506q0 -309 -224.5 -530.5t-541.5 -221.5q-68 0 -125 8.5t-107 26.5q-92 35 -252 148l-131 -129l-73 77l129 134l-6 6q-94 113 -146 235 q-45 123 -45 264zM274 731q0 -51 4.5 -85t18.5 -71q27 -66 100 -178l754 762q-109 68 -175.5 91.5t-152.5 23.5q-233 0 -391 -154.5t-158 -388.5zM475 317q111 -76 177.5 -99t156.5 -23q225 0 385 159.5t160 390.5q0 86 -24.5 155t-98.5 183z" />
<glyph unicode="&#xd9;" horiz-adv-x="1445" d="M117 645v832h231v-830l6 -145q18 -143 118.5 -234.5t246.5 -91.5q90 0 166 38t125 103.5t69 141.5q8 35 14.5 82t6.5 98v838h229v-830v-41v-28q-4 -18 -4 -25q0 -39 -25.5 -180.5t-189.5 -275.5t-391 -134q-150 0 -277 61.5t-197.5 160t-101.5 204.5q-27 113 -26 256z M521 1917h184l147 -277h-176z" />
<glyph unicode="&#xda;" horiz-adv-x="1445" d="M117 645v832h231v-830l6 -145q18 -143 118.5 -234.5t246.5 -91.5q90 0 166 38t125 103.5t69 141.5q8 35 14.5 82t6.5 98v838h229v-830v-41v-28q-4 -18 -4 -25q0 -39 -25.5 -180.5t-189.5 -275.5t-391 -134q-150 0 -277 61.5t-197.5 160t-101.5 204.5q-27 113 -26 256z M594 1642l144 275h184l-151 -275h-177z" />
<glyph unicode="&#xdb;" horiz-adv-x="1445" d="M117 645v832h231v-830l6 -145q18 -143 118.5 -234.5t246.5 -91.5q90 0 166 38t125 103.5t69 141.5q8 35 14.5 82t6.5 98v838h229v-830v-41v-28q-4 -18 -4 -25q0 -39 -25.5 -180.5t-189.5 -275.5t-391 -134q-150 0 -277 61.5t-197.5 160t-101.5 204.5q-27 113 -26 256z M451 1642l137 275h254l151 -275h-166l-112 215l-107 -215h-157z" />
<glyph unicode="&#xdc;" horiz-adv-x="1445" d="M117 645v832h231v-830l6 -145q18 -143 118.5 -234.5t246.5 -91.5q90 0 166 38t125 103.5t69 141.5q8 35 14.5 82t6.5 98v838h229v-830v-41v-28q-4 -18 -4 -25q0 -39 -25.5 -180.5t-189.5 -275.5t-391 -134q-150 0 -277 61.5t-197.5 160t-101.5 204.5q-27 113 -26 256z M385 1550v219h221v-219h-221zM840 1550v219h223v-219h-223z" />
<glyph unicode="&#xdf;" horiz-adv-x="1126" d="M117 0v946q0 209 55 321.5t161.5 173t239.5 60.5q193 0 317 -111.5t124 -291.5q0 -193 -146 -289q109 -66 158 -147.5t49 -200.5q0 -201 -141 -340t-342 -139l-82 6l-92 22l47 211l49 -14l59 -6q117 0 196 76.5t79 187.5q0 82 -53 143q-47 59 -133 78q-37 8 -81 12 t-114 4v193l47 -2q276 0 277 205q0 82 -60.5 137t-152.5 55q-152 0 -192 -101.5t-40 -238.5v-950h-229z" />
<glyph unicode="&#xe0;" horiz-adv-x="1343" d="M74 547q0 236 163.5 400.5t397.5 164.5q203 0 277.5 -82t93.5 -108l32 -52q-18 39 -24 66l-6 74v98h219v-1108h-223v86q0 66 32 133l-32 -47q-150 -193 -377 -192q-223 0 -388 167.5t-165 399.5zM303 543q0 -147 99.5 -250t242.5 -103q76 0 137.5 25t116.5 78 q104 102 105 250q0 76 -25 137t-78 117q-102 104 -250 104q-145 0 -246.5 -103t-101.5 -255zM469 1477h184l147 -277h-176z" />
<glyph unicode="&#xe1;" horiz-adv-x="1343" d="M74 547q0 236 163.5 400.5t397.5 164.5q203 0 277.5 -82t93.5 -108l32 -52q-18 39 -24 66l-6 74v98h219v-1108h-223v86q0 66 32 133l-32 -47q-150 -193 -377 -192q-223 0 -388 167.5t-165 399.5zM303 543q0 -147 99.5 -250t242.5 -103q76 0 137.5 25t116.5 78 q104 102 105 250q0 76 -25 137t-78 117q-102 104 -250 104q-145 0 -246.5 -103t-101.5 -255zM542 1202l144 275h184l-151 -275h-177z" />
<glyph unicode="&#xe2;" horiz-adv-x="1343" d="M74 547q0 236 163.5 400.5t397.5 164.5q203 0 277.5 -82t93.5 -108l32 -52q-18 39 -24 66l-6 74v98h219v-1108h-223v86q0 66 32 133l-32 -47q-150 -193 -377 -192q-223 0 -388 167.5t-165 399.5zM303 543q0 -147 99.5 -250t242.5 -103q76 0 137.5 25t116.5 78 q104 102 105 250q0 76 -25 137t-78 117q-102 104 -250 104q-145 0 -246.5 -103t-101.5 -255zM400 1202l137 275h254l151 -275h-166l-112 215l-107 -215h-157z" />
<glyph unicode="&#xe3;" horiz-adv-x="1343" d="M74 547q0 236 163.5 400.5t397.5 164.5q203 0 277.5 -82t93.5 -108l32 -52q-18 39 -24 66l-6 74v98h219v-1108h-223v86q0 66 32 133l-32 -47q-150 -193 -377 -192q-223 0 -388 167.5t-165 399.5zM303 543q0 -147 99.5 -250t242.5 -103q76 0 137.5 25t116.5 78 q104 102 105 250q0 76 -25 137t-78 117q-102 104 -250 104q-145 0 -246.5 -103t-101.5 -255zM367 1200q0 117 48 177.5t138 60.5q37 0 67 -12.5t85 -51.5q59 -35 94 -39q49 0 57 84h119l2 -16q0 -84 -53 -151.5t-123 -67.5q-51 0 -121 45l-88 55l-35 8q-59 0 -59 -92h-131z " />
<glyph unicode="&#xe4;" horiz-adv-x="1343" d="M74 547q0 236 163.5 400.5t397.5 164.5q203 0 277.5 -82t93.5 -108l32 -52q-18 39 -24 66l-6 74v98h219v-1108h-223v86q0 66 32 133l-32 -47q-150 -193 -377 -192q-223 0 -388 167.5t-165 399.5zM297 1239v219h221v-219h-221zM303 543q0 -147 99.5 -250t242.5 -103 q76 0 137.5 25t116.5 78q104 102 105 250q0 76 -25 137t-78 117q-102 104 -250 104q-145 0 -246.5 -103t-101.5 -255zM750 1239v219h225v-219h-225z" />
<glyph unicode="&#xe5;" horiz-adv-x="1345" d="M74 547q0 236 163.5 400.5t397.5 164.5q203 0 277.5 -82t93.5 -108l32 -52q-18 39 -24 66l-6 74v98h219v-1108h-223v86q0 66 32 133l-32 -47q-150 -193 -377 -192q-223 0 -388 167.5t-165 399.5zM303 543q0 -147 99.5 -250t242.5 -103q76 0 137.5 25t116.5 78 q104 102 105 250q0 76 -25 137t-78 117q-102 104 -250 104q-145 0 -246.5 -103t-101.5 -255zM487 1343q0 78 53.5 131.5t131.5 53.5q70 0 121 -52.5t51 -127.5q0 -74 -51.5 -125.5t-128.5 -51.5q-72 0 -124.5 50.5t-52.5 121.5zM594 1348q0 -29 18.5 -49.5t53.5 -24.5 q31 0 52 21.5t23 54.5q0 31 -19.5 51t-53.5 24q-29 0 -50.5 -22t-23.5 -55z" />
<glyph unicode="&#xe6;" horiz-adv-x="2213" d="M74 545q0 227 167 393t396 166q203 0 279.5 -81t125.5 -153q-34 70 -34 131v103h221v-230q25 106 127 175t239 69q229 0 394 -170t165 -405l-4 -76h-774v188h543q-27 109 -122 179.5t-212 70.5q-147 0 -249.5 -102.5t-102.5 -249.5q0 -152 102.5 -254t251.5 -102 q78 0 137.5 24.5t124.5 87.5l164 -135l-67 -57l-109 -78q-72 -49 -260 -49q-195 0 -277 100q-20 29 -36 60l-31 73v-223h-225v86l6 68q6 25 24 65l-30 -43q-76 -100 -166 -146t-215 -46q-223 0 -388 166.5t-165 394.5zM305 541q0 -145 99.5 -248t242.5 -103 q150 0 255.5 99.5t105.5 251.5q0 150 -102.5 253t-250.5 103q-141 0 -245.5 -106.5t-104.5 -249.5z" />
<glyph unicode="&#xe7;" horiz-adv-x="1101" d="M74 547q0 240 166 405.5t411 165.5q238 0 402 -166l-158 -151q-102 102 -250 102q-145 0 -245.5 -103.5t-100.5 -252.5q0 -150 99.5 -252t250.5 -102q82 0 145.5 30.5t118.5 93.5l160 -151q-172 -188 -428 -189q-244 0 -407.5 161t-163.5 409zM297 -344l244 285h229 l-244 -285h-229z" />
<glyph unicode="&#xe8;" horiz-adv-x="1277" d="M74 541q0 240 166 405.5t411 165.5q231 0 399.5 -166t168.5 -401v-45q-6 -27 -9 -39h-768v188h543q-39 115 -128 182.5t-208 67.5q-152 0 -251 -100.5t-99 -253.5q0 -150 99.5 -252.5t248.5 -102.5q143 0 258 111l164 -139q-166 -184 -424 -185q-244 0 -407.5 161 t-163.5 403zM437 1477h184l147 -277h-176z" />
<glyph unicode="&#xe9;" horiz-adv-x="1277" d="M74 541q0 240 166 405.5t411 165.5q231 0 399.5 -166t168.5 -401v-45q-6 -27 -9 -39h-768v188h543q-39 115 -128 182.5t-208 67.5q-152 0 -251 -100.5t-99 -253.5q0 -150 99.5 -252.5t248.5 -102.5q143 0 258 111l164 -139q-166 -184 -424 -185q-244 0 -407.5 161 t-163.5 403zM510 1202l144 275h184l-151 -275h-177z" />
<glyph unicode="&#xea;" horiz-adv-x="1277" d="M74 541q0 240 166 405.5t411 165.5q231 0 399.5 -166t168.5 -401v-45q-6 -27 -9 -39h-768v188h543q-39 115 -128 182.5t-208 67.5q-152 0 -251 -100.5t-99 -253.5q0 -150 99.5 -252.5t248.5 -102.5q143 0 258 111l164 -139q-166 -184 -424 -185q-244 0 -407.5 161 t-163.5 403zM367 1202l137 275h254l151 -275h-166l-112 215l-107 -215h-157z" />
<glyph unicode="&#xeb;" horiz-adv-x="1277" d="M74 541q0 240 166 405.5t411 165.5q231 0 399.5 -166t168.5 -401v-45q-6 -27 -9 -39h-768v188h543q-39 115 -128 182.5t-208 67.5q-152 0 -251 -100.5t-99 -253.5q0 -150 99.5 -252.5t248.5 -102.5q143 0 258 111l164 -139q-166 -184 -424 -185q-244 0 -407.5 161 t-163.5 403zM299 1198v219h221v-219h-221zM754 1198v219h223v-219h-223z" />
<glyph unicode="&#xec;" horiz-adv-x="464" d="M29 1477h184l147 -277h-176zM119 0v1108h227v-1108h-227z" />
<glyph unicode="&#xed;" horiz-adv-x="464" d="M104 1202l144 275h184l-151 -275h-177zM119 0v1108h227v-1108h-227z" />
<glyph unicode="&#xee;" horiz-adv-x="464" d="M-36 1202l137 275h254l151 -275h-166l-112 215l-107 -215h-157zM119 0v1108h227v-1108h-227z" />
<glyph unicode="&#xef;" horiz-adv-x="464" d="M-104 1198v219h221v-219h-221zM119 0v1108h227v-1108h-227zM351 1198v219h223v-219h-223z" />
<glyph unicode="&#xf1;" horiz-adv-x="1253" d="M117 0v1108h223v-53q0 -63 -31 -135q102 207 359 206q111 0 209 -48t161 -130q29 -43 46.5 -76.5t31.5 -78.5q20 -82 21 -199v-594h-219v563l-3 45q0 27 -13 99.5t-91 141.5t-182 69q-66 0 -123 -29q-59 -25 -98 -74t-53.5 -95t-14.5 -155v-565h-223zM322 1200 q0 117 48 177.5t138 60.5q37 0 67 -12.5t85 -51.5q59 -35 94 -39q49 0 57 84h119l2 -16q0 -84 -53 -151.5t-123 -67.5q-51 0 -121 45l-88 55l-35 8q-59 0 -59 -92h-131z" />
<glyph unicode="&#xf2;" horiz-adv-x="1290" d="M74 551q0 233 166.5 400t408.5 167q231 0 400.5 -167t169.5 -400t-167 -400t-405 -167q-236 0 -404.5 166.5t-168.5 400.5zM301 551q0 -150 99.5 -252t246.5 -102q150 0 247 102t97 252q0 145 -98 248.5t-244 103.5q-147 0 -247.5 -100t-100.5 -252zM443 1477h184 l147 -277h-176z" />
<glyph unicode="&#xf3;" horiz-adv-x="1290" d="M74 551q0 233 166.5 400t408.5 167q231 0 400.5 -167t169.5 -400t-167 -400t-405 -167q-236 0 -404.5 166.5t-168.5 400.5zM301 551q0 -150 99.5 -252t246.5 -102q150 0 247 102t97 252q0 145 -98 248.5t-244 103.5q-147 0 -247.5 -100t-100.5 -252zM516 1202l144 275 h184l-151 -275h-177z" />
<glyph unicode="&#xf4;" horiz-adv-x="1290" d="M74 551q0 233 166.5 400t408.5 167q231 0 400.5 -167t169.5 -400t-167 -400t-405 -167q-236 0 -404.5 166.5t-168.5 400.5zM301 551q0 -150 99.5 -252t246.5 -102q150 0 247 102t97 252q0 145 -98 248.5t-244 103.5q-147 0 -247.5 -100t-100.5 -252zM373 1202l137 275 h254l151 -275h-166l-112 215l-107 -215h-157z" />
<glyph unicode="&#xf5;" horiz-adv-x="1290" d="M74 551q0 233 166.5 400t408.5 167q231 0 400.5 -167t169.5 -400t-167 -400t-405 -167q-236 0 -404.5 166.5t-168.5 400.5zM301 551q0 -150 99.5 -252t246.5 -102q150 0 247 102t97 252q0 145 -98 248.5t-244 103.5q-147 0 -247.5 -100t-100.5 -252zM340 1200 q0 117 48 177.5t138 60.5q37 0 67 -12.5t85 -51.5q59 -35 94 -39q49 0 57 84h119l2 -16q0 -84 -53 -151.5t-123 -67.5q-51 0 -121 45l-88 55l-35 8q-59 0 -59 -92h-131z" />
<glyph unicode="&#xf6;" horiz-adv-x="1290" d="M74 551q0 233 166.5 400t408.5 167q231 0 400.5 -167t169.5 -400t-167 -400t-405 -167q-236 0 -404.5 166.5t-168.5 400.5zM301 551q0 -150 99.5 -252t246.5 -102q150 0 247 102t97 252q0 145 -98 248.5t-244 103.5q-147 0 -247.5 -100t-100.5 -252zM309 1239v219h221 v-219h-221zM764 1239v219h223v-219h-223z" />
<glyph unicode="&#xf7;" horiz-adv-x="1216" d="M88 414v139h948v-139h-948zM446 207q0 49 37 83t80 34q49 0 82 -33t33 -84q0 -49 -35 -82q-31 -35 -80 -35t-84 35q-33 39 -33 82zM446 758q0 49 37 82.5t80 33.5q49 0 82 -35.5t33 -80.5q0 -49 -35 -82q-31 -35 -80 -35t-84 33q-33 37 -33 84z" />
<glyph unicode="&#xf8;" horiz-adv-x="1253" d="M53 545q0 242 166 407.5t416 165.5q100 0 160 -22q66 -20 186 -97l102 105l60 -55l-105 -111q158 -193 158 -393q0 -227 -167 -394t-404 -167q-104 0 -171 24.5t-190 106.5l-112 -113l-58 55l109 109q-78 57 -114 145t-36 234zM279 545q0 -53 14 -96t57 -117l477 510 q-29 16 -51 26.5t-58 21.5t-89 11q-154 0 -252 -100.5t-98 -255.5zM414 279q59 -39 110 -64q47 -18 103 -18q150 0 247 102t97 256q0 66 -16.5 109t-69.5 120z" />
<glyph unicode="&#xf9;" horiz-adv-x="1253" d="M117 514v594h219v-563q0 -78 15.5 -149.5t92 -138.5t183.5 -67q135 0 196.5 75t77.5 124q12 47 12 154v565h224v-1108h-226v53q0 63 33 135q-49 -98 -142 -153t-216 -55q-236 0 -329 126.5t-120 206.5q-20 82 -20 201zM424 1477h184l147 -277h-176z" />
<glyph unicode="&#xfa;" horiz-adv-x="1253" d="M117 514v594h219v-563q0 -78 15.5 -149.5t92 -138.5t183.5 -67q135 0 196.5 75t77.5 124q12 47 12 154v565h224v-1108h-226v53q0 63 33 135q-49 -98 -142 -153t-216 -55q-236 0 -329 126.5t-120 206.5q-20 82 -20 201zM497 1202l144 275h184l-151 -275h-177z" />
<glyph unicode="&#xfb;" horiz-adv-x="1253" d="M117 514v594h219v-563q0 -78 15.5 -149.5t92 -138.5t183.5 -67q135 0 196.5 75t77.5 124q12 47 12 154v565h224v-1108h-226v53q0 63 33 135q-49 -98 -142 -153t-216 -55q-236 0 -329 126.5t-120 206.5q-20 82 -20 201zM355 1202l137 275h254l151 -275h-166l-112 215 l-107 -215h-157z" />
<glyph unicode="&#xfc;" horiz-adv-x="1253" d="M117 514v594h219v-563q0 -78 15.5 -149.5t92 -138.5t183.5 -67q135 0 196.5 75t77.5 124q12 47 12 154v565h224v-1108h-226v53q0 63 33 135q-49 -98 -142 -153t-216 -55q-236 0 -329 126.5t-120 206.5q-20 82 -20 201zM289 1239v219h221v-219h-221zM741 1239v219h224 v-219h-224z" />
<glyph unicode="&#xff;" horiz-adv-x="1114" d="M-45 1108h254l352 -688l348 688h248l-772 -1479h-248l295 559zM217 1198v219h221v-219h-221zM672 1198v219h223v-219h-223z" />
<glyph unicode="&#x152;" horiz-adv-x="1959" d="M74 735q0 315 224 536.5t548 221.5l74 -6l79 -10h854v-201h-628v-428h630v-199h-626v-446h657v-197h-860l-108 -18l-80 -6q-162 0 -295 53t-248 166q-221 221 -221 534zM293 731q0 -223 159.5 -379.5t383.5 -156.5h30q14 0 42 4t85 20v1028l-88 19l-65 6 q-229 0 -388 -158t-159 -383z" />
<glyph unicode="&#x153;" horiz-adv-x="2195" d="M74 547q0 227 172 395t407 168q168 0 271.5 -58.5t183.5 -195.5q28 61 57 94q68 74 175.5 119t228.5 45q233 0 401 -168t168 -405l-4 -76h-770v186h543l-23 51q-25 47 -80 99q-47 49 -103 74.5t-136 25.5q-147 0 -247.5 -100.5t-100.5 -251.5q0 -150 99 -252t249 -102 q160 0 262 114l164 -135q-156 -186 -430 -186q-156 0 -276 62.5t-181 174.5l-62 -78q-117 -158 -370 -157q-250 0 -424 159.5t-174 397.5zM299 547q0 -145 102.5 -247.5t245.5 -102.5q141 0 243.5 104.5t102.5 245.5q0 137 -105.5 244.5t-244.5 107.5q-135 0 -239.5 -105.5 t-104.5 -246.5z" />
<glyph unicode="&#x178;" horiz-adv-x="1198" d="M-59 1477h274l395 -633l385 633h262l-528 -838v-639h-233v631zM258 1638v219h221v-219h-221zM713 1638v219h223v-219h-223z" />
<glyph unicode="&#x2000;" horiz-adv-x="958" />
<glyph unicode="&#x2001;" horiz-adv-x="1917" />
<glyph unicode="&#x2002;" horiz-adv-x="958" />
<glyph unicode="&#x2003;" horiz-adv-x="1917" />
<glyph unicode="&#x2004;" horiz-adv-x="639" />
<glyph unicode="&#x2005;" horiz-adv-x="479" />
<glyph unicode="&#x2006;" horiz-adv-x="319" />
<glyph unicode="&#x2007;" horiz-adv-x="319" />
<glyph unicode="&#x2008;" horiz-adv-x="239" />
<glyph unicode="&#x2009;" horiz-adv-x="383" />
<glyph unicode="&#x200a;" horiz-adv-x="106" />
<glyph unicode="&#x2010;" horiz-adv-x="761" d="M59 467v190h643v-190h-643z" />
<glyph unicode="&#x2011;" horiz-adv-x="761" d="M59 467v190h643v-190h-643z" />
<glyph unicode="&#x2012;" horiz-adv-x="761" d="M59 467v190h643v-190h-643z" />
<glyph unicode="&#x2013;" d="M37 666v219h1112v-219h-1112z" />
<glyph unicode="&#x2014;" horiz-adv-x="2039" d="M61 561v352h1917v-352h-1917z" />
<glyph unicode="&#x2018;" horiz-adv-x="563" d="M29 936l243 541h230l-244 -541h-229z" />
<glyph unicode="&#x2019;" horiz-adv-x="563" d="M29 936l243 541h230l-244 -541h-229z" />
<glyph unicode="&#x201a;" horiz-adv-x="430" d="M-104 -305l243 541h232l-244 -541h-231z" />
<glyph unicode="&#x201c;" horiz-adv-x="950" d="M29 940l241 537h232l-244 -537h-229zM418 940l241 537h232l-244 -537h-229z" />
<glyph unicode="&#x201d;" horiz-adv-x="950" d="M29 944l241 533h232l-244 -533h-229zM418 944l241 533h234l-244 -533h-231z" />
<glyph unicode="&#x201e;" horiz-adv-x="817" d="M-104 -305l241 541h234l-244 -541h-231zM285 -305l241 541h234l-244 -541h-231z" />
<glyph unicode="&#x2022;" horiz-adv-x="348" d="M59 442v232h230v-232h-230z" />
<glyph unicode="&#x2026;" horiz-adv-x="2039" d="M121 193q0 92 64.5 156.5t156.5 64.5q90 0 155.5 -65.5t65.5 -155.5q0 -92 -64.5 -157t-156.5 -65t-158 64q-63 68 -63 158zM803 193q0 92 64.5 156.5t156.5 64.5q90 0 155.5 -65.5t65.5 -155.5q0 -92 -64.5 -157t-156.5 -65t-158 64q-63 68 -63 158zM1485 193 q0 92 64.5 156.5t156.5 64.5q90 0 155.5 -65.5t65.5 -155.5q0 -92 -64.5 -157t-156.5 -65t-158 64q-63 68 -63 158z" />
<glyph unicode="&#x202f;" horiz-adv-x="383" />
<glyph unicode="&#x2039;" horiz-adv-x="960" d="M29 561l583 547h318l-582 -551l524 -557h-305z" />
<glyph unicode="&#x203a;" horiz-adv-x="960" d="M29 0l583 555l-526 553h307l537 -553l-582 -555h-319z" />
<glyph unicode="&#x205f;" horiz-adv-x="479" />
<glyph unicode="&#x20ac;" horiz-adv-x="1574" d="M70 817h1173l49 152h-1161zM145 545h1022l50 151h-1010zM285 731q0 -319 221 -534q223 -215 543 -215q100 0 201.5 27.5t176.5 72.5l97 74l-135 159q-82 -63 -163 -96t-186 -33q-221 0 -376 160q-156 162 -156 389q0 231 156 389q156 162 376 162q158 0 285 -80l66 -47 l139 162q-113 88 -225.5 131t-257.5 43q-315 0 -541 -225q-221 -225 -221 -539z" />
<glyph unicode="&#x2122;" horiz-adv-x="1554" d="M59 1335v140h455v-140l-152 2v-600h-153v600zM489 737l121 738h152l131 -357l33 -104l8 -80q0 43 8 82t33 102l131 357h154l118 -738h-147l-62 391l-6 54v49l2 49l-26 -98l-11 -39l-6 -15l-141 -391h-94l-142 391l-4 15l-12 39l-27 98l3 -37v-37v-24l-7 -54l-61 -391 h-148z" />
<glyph unicode="&#x25fc;" horiz-adv-x="1105" d="M0 0v1106h1106v-1106h-1106z" />
</font>
</defs>
</svg>
